<svg width="90" height="32" viewBox="0 0 90 32" fill="none" xmlns="http://www.w3.org/2000/svg">
<path d="M85 0H31V32H85C87.7614 32 90 29.7614 90 27V5C90 2.23858 87.7614 0 85 0Z" fill="#0F1418"/>
<path d="M5 0.5H30.5V31.5H5C2.51472 31.5 0.5 29.4853 0.5 27V5C0.5 2.51472 2.51472 0.5 5 0.5Z" fill="white" stroke="#1C2125"/>
<path fill-rule="evenodd" clip-rule="evenodd" d="M24.6421 9.03599L17.0652 4.53837C16.1609 4.00153 15.0462 4.00153 14.1419 4.53837L6.56504 9.03599C5.66097 9.57283 5.10376 10.5647 5.10376 11.6384V20.6337C5.10376 21.7071 5.66097 22.6995 6.56531 23.2364L14.1421 27.7332C14.5943 28.0017 15.0986 28.1356 15.6037 28.1356C16.1085 28.1356 16.6128 28.0017 17.065 27.7332L24.6418 23.2364C25.5461 22.6995 26.1036 21.7071 26.1036 20.6337V11.6384C26.1036 10.5647 25.5461 9.57283 24.6421 9.03599Z" fill="#FEFEFE"/>
<path fill-rule="evenodd" clip-rule="evenodd" d="M14.4069 27.2729L6.83003 22.776C6.08894 22.336 5.62857 21.5153 5.62857 20.6337V11.6387C5.62857 10.7571 6.08894 9.93641 6.82977 9.49667L14.4069 4.99905C14.7701 4.78342 15.1839 4.66938 15.6036 4.66938C16.0229 4.66938 16.4367 4.78342 16.8003 4.99905L24.3771 9.49667C25.0015 9.86735 25.4227 10.5092 25.5412 11.2292C25.2899 10.6928 24.7232 10.5471 24.0628 10.9328L16.8947 15.3603C16.001 15.8829 15.3419 16.4692 15.3414 17.5468V26.3794C15.3408 27.0247 15.6014 27.4427 16.0018 27.5639C15.8703 27.5866 15.7377 27.6025 15.6036 27.6025C15.1839 27.6025 14.7701 27.4885 14.4069 27.2729ZM24.6419 9.03604L17.0651 4.53868C16.6129 4.27013 16.1081 4.13599 15.6036 4.13599C15.0987 4.13599 14.5939 4.27013 14.1417 4.53868L6.56492 9.03604C5.66085 9.57287 5.10364 10.5651 5.10364 11.6387V20.6337C5.10364 21.7071 5.66085 22.6996 6.56519 23.2364L14.142 27.7335C14.5944 28.0018 15.0987 28.1359 15.6036 28.1359C16.1084 28.1359 16.6127 28.0018 17.0648 27.7335L24.6419 23.2364C25.5463 22.6996 26.1035 21.7071 26.1035 20.6337V11.6387C26.1035 10.5651 25.5463 9.57287 24.6419 9.03604Z" fill="#3E474A"/>
<path fill-rule="evenodd" clip-rule="evenodd" d="M22.6558 21.5032L20.7691 22.6324C20.719 22.6615 20.6823 22.6943 20.682 22.7544V23.2481C20.682 23.3084 20.7225 23.3336 20.7725 23.3042L22.6883 22.1398C22.7383 22.1107 22.746 22.0549 22.7463 21.9948V21.5593C22.7463 21.4992 22.7058 21.4741 22.6558 21.5032Z" fill="#47B353"/>
<path fill-rule="evenodd" clip-rule="evenodd" d="M18.6381 17.3475C18.6992 17.3166 18.7495 17.3547 18.7503 17.4346L18.7567 18.0873C19.03 17.9786 19.2673 17.9495 19.4824 17.9992C19.529 18.0116 19.5496 18.0751 19.5306 18.1505L19.3869 18.7289C19.3758 18.7726 19.3512 18.8168 19.3215 18.8443C19.3091 18.8564 19.2964 18.866 19.2837 18.8723C19.2644 18.8821 19.2453 18.8853 19.2271 18.8816C19.1289 18.8593 18.8956 18.8083 18.5283 18.9943C18.1431 19.1893 18.0084 19.524 18.0111 19.7724C18.0142 20.069 18.1664 20.159 18.6918 20.168C19.3919 20.1796 19.6943 20.4855 19.7017 21.1906C19.7089 21.883 19.3393 22.6265 18.7739 23.0821L18.7863 23.7282C18.7871 23.806 18.7365 23.8951 18.6754 23.9261L18.2928 24.1465C18.2315 24.1774 18.1812 24.1393 18.1804 24.0616L18.1738 23.426C17.846 23.5623 17.5139 23.5951 17.3017 23.5099C17.2618 23.4943 17.2446 23.4353 17.2604 23.3681L17.3991 22.7839C17.4102 22.7379 17.4345 22.6918 17.4676 22.6624C17.4793 22.6511 17.4914 22.6423 17.5036 22.6363C17.5256 22.6251 17.547 22.6228 17.5652 22.6296C17.7938 22.7066 18.0862 22.6706 18.3675 22.5283C18.7246 22.3476 18.9636 21.9833 18.9599 21.6213C18.9564 21.293 18.7786 21.1564 18.3463 21.1533C17.796 21.1549 17.2829 21.0464 17.2745 20.2362C17.2676 19.5692 17.6145 18.8752 18.1635 18.4363L18.1566 17.7841C18.1558 17.7039 18.2047 17.6158 18.2677 17.5841L18.6381 17.3475Z" fill="#FEFEFE"/>
<path d="M41.9413 20V9.5H47.0713C48.3913 9.5 49.3813 9.75 50.0413 10.25C50.7113 10.75 51.0463 11.41 51.0463 12.23C51.0463 12.78 50.9113 13.26 50.6413 13.67C50.3713 14.07 50.0013 14.38 49.5313 14.6C49.0613 14.82 48.5213 14.93 47.9113 14.93L48.1963 14.315C48.8563 14.315 49.4413 14.425 49.9513 14.645C50.4613 14.855 50.8563 15.17 51.1363 15.59C51.4263 16.01 51.5713 16.525 51.5713 17.135C51.5713 18.035 51.2163 18.74 50.5063 19.25C49.7963 19.75 48.7513 20 47.3713 20H41.9413ZM44.3563 18.17H47.1913C47.8213 18.17 48.2963 18.07 48.6163 17.87C48.9463 17.66 49.1113 17.33 49.1113 16.88C49.1113 16.44 48.9463 16.115 48.6163 15.905C48.2963 15.685 47.8213 15.575 47.1913 15.575H44.1763V13.805H46.7713C47.3613 13.805 47.8113 13.705 48.1213 13.505C48.4413 13.295 48.6013 12.98 48.6013 12.56C48.6013 12.15 48.4413 11.845 48.1213 11.645C47.8113 11.435 47.3613 11.33 46.7713 11.33H44.3563V18.17ZM58.376 20V18.425L58.226 18.08V15.26C58.226 14.76 58.071 14.37 57.761 14.09C57.461 13.81 56.996 13.67 56.366 13.67C55.936 13.67 55.511 13.74 55.091 13.88C54.681 14.01 54.331 14.19 54.041 14.42L53.201 12.785C53.641 12.475 54.171 12.235 54.791 12.065C55.411 11.895 56.041 11.81 56.681 11.81C57.911 11.81 58.866 12.1 59.546 12.68C60.226 13.26 60.566 14.165 60.566 15.395V20H58.376ZM55.916 20.12C55.286 20.12 54.746 20.015 54.296 19.805C53.846 19.585 53.501 19.29 53.261 18.92C53.021 18.55 52.901 18.135 52.901 17.675C52.901 17.195 53.016 16.775 53.246 16.415C53.486 16.055 53.861 15.775 54.371 15.575C54.881 15.365 55.546 15.26 56.366 15.26H58.511V16.625H56.621C56.071 16.625 55.691 16.715 55.481 16.895C55.281 17.075 55.181 17.3 55.181 17.57C55.181 17.87 55.296 18.11 55.526 18.29C55.766 18.46 56.091 18.545 56.501 18.545C56.891 18.545 57.241 18.455 57.551 18.275C57.861 18.085 58.086 17.81 58.226 17.45L58.586 18.53C58.416 19.05 58.106 19.445 57.656 19.715C57.206 19.985 56.626 20.12 55.916 20.12ZM65.5788 20.12C64.8888 20.12 64.2238 20.04 63.5838 19.88C62.9538 19.71 62.4538 19.5 62.0838 19.25L62.8638 17.57C63.2338 17.8 63.6688 17.99 64.1688 18.14C64.6788 18.28 65.1788 18.35 65.6688 18.35C66.2088 18.35 66.5888 18.285 66.8088 18.155C67.0388 18.025 67.1538 17.845 67.1538 17.615C67.1538 17.425 67.0638 17.285 66.8838 17.195C66.7138 17.095 66.4838 17.02 66.1938 16.97C65.9038 16.92 65.5838 16.87 65.2338 16.82C64.8938 16.77 64.5488 16.705 64.1988 16.625C63.8488 16.535 63.5288 16.405 63.2388 16.235C62.9488 16.065 62.7138 15.835 62.5338 15.545C62.3638 15.255 62.2788 14.88 62.2788 14.42C62.2788 13.91 62.4238 13.46 62.7138 13.07C63.0138 12.68 63.4438 12.375 64.0038 12.155C64.5638 11.925 65.2338 11.81 66.0138 11.81C66.5638 11.81 67.1238 11.87 67.6938 11.99C68.2638 12.11 68.7388 12.285 69.1188 12.515L68.3388 14.18C67.9488 13.95 67.5538 13.795 67.1538 13.715C66.7638 13.625 66.3838 13.58 66.0138 13.58C65.4938 13.58 65.1138 13.65 64.8738 13.79C64.6338 13.93 64.5138 14.11 64.5138 14.33C64.5138 14.53 64.5988 14.68 64.7688 14.78C64.9488 14.88 65.1838 14.96 65.4738 15.02C65.7638 15.08 66.0788 15.135 66.4188 15.185C66.7688 15.225 67.1188 15.29 67.4688 15.38C67.8188 15.47 68.1338 15.6 68.4138 15.77C68.7038 15.93 68.9388 16.155 69.1188 16.445C69.2988 16.725 69.3888 17.095 69.3888 17.555C69.3888 18.055 69.2388 18.5 68.9388 18.89C68.6388 19.27 68.2038 19.57 67.6338 19.79C67.0738 20.01 66.3888 20.12 65.5788 20.12ZM75.9176 11.81C76.5576 11.81 77.1276 11.94 77.6276 12.2C78.1376 12.45 78.5376 12.84 78.8276 13.37C79.1176 13.89 79.2626 14.56 79.2626 15.38V20H76.9226V15.74C76.9226 15.09 76.7776 14.61 76.4876 14.3C76.2076 13.99 75.8076 13.835 75.2876 13.835C74.9176 13.835 74.5826 13.915 74.2826 14.075C73.9926 14.225 73.7626 14.46 73.5926 14.78C73.4326 15.1 73.3526 15.51 73.3526 16.01V20H71.0126V8.87H73.3526V14.165L72.8276 13.49C73.1176 12.95 73.5326 12.535 74.0726 12.245C74.6126 11.955 75.2276 11.81 75.9176 11.81Z" fill="white"/>
<path d="M85 0H5C2.23858 0 0 2.23858 0 5V27C0 29.7614 2.23858 32 5 32H85C87.7614 32 90 29.7614 90 27V5C90 2.23858 87.7614 0 85 0Z" fill="url(#paint0_linear_14_1570)"/>
<defs>
<linearGradient id="paint0_linear_14_1570" x1="0" y1="0" x2="0" y2="32" gradientUnits="userSpaceOnUse">
<stop stop-color="#BBBBBB" stop-opacity="0.1"/>
<stop offset="1" stop-opacity="0.1"/>
</linearGradient>
</defs>
</svg>
