<svg width="127" height="32" viewBox="0 0 127 32" fill="none" xmlns="http://www.w3.org/2000/svg">
<path d="M122 0H31V32H122C124.761 32 127 29.7614 127 27V5C127 2.23858 124.761 0 122 0Z" fill="#0F1418"/>
<path d="M31 0H5C2.23858 0 0 2.23858 0 5V27C0 29.7614 2.23858 32 5 32H31V0Z" fill="#563D7C"/>
<g clip-path="url(#clip0_18_315)">
<path d="M4 24.9054C4 26.6147 5.38553 28 7.09459 28H24.9053C26.6147 28 28 26.6145 28 24.9054V7.09469C28 5.38534 26.6145 4 24.9054 4H7.09469C5.38534 4 4 5.38553 4 7.09459V24.9053V24.9054Z" fill="#563D7C"/>
<path d="M13.9524 14.6161V11.2173H16.944C17.229 11.2173 17.5037 11.2411 17.7683 11.2886C18.0328 11.336 18.2669 11.4208 18.4705 11.5429C18.6739 11.6651 18.8367 11.8347 18.9589 12.0517C19.081 12.2688 19.1421 12.547 19.1421 12.8861C19.1421 13.4967 18.9589 13.9377 18.5925 14.209C18.2262 14.4804 17.7581 14.6161 17.1882 14.6161H13.9524ZM10.7571 8.73438V23.2656H17.7988C18.4501 23.2656 19.0844 23.1843 19.7018 23.0214C20.3191 22.8586 20.8686 22.6076 21.3503 22.2684C21.8319 21.9292 22.2152 21.4916 22.5001 20.9557C22.7851 20.4197 22.9275 19.7854 22.9275 19.0528C22.9275 18.1437 22.707 17.367 22.2661 16.7225C21.8251 16.078 21.1569 15.6269 20.2614 15.3691C20.9126 15.0571 21.4045 14.6567 21.737 14.1683C22.0693 13.6799 22.2355 13.0694 22.2355 12.3366C22.2355 11.6583 22.1236 11.0884 21.8997 10.6271C21.6759 10.1658 21.3604 9.79609 20.9533 9.51794C20.5464 9.23978 20.0579 9.03962 19.488 8.91756C18.9182 8.79541 18.2873 8.73438 17.5953 8.73438H10.7571ZM13.9524 20.7827V16.7937H17.4325C18.1244 16.7937 18.6807 16.9531 19.1014 17.272C19.522 17.5908 19.7323 18.1233 19.7323 18.8696C19.7323 19.2496 19.6678 19.5616 19.5389 19.8058C19.41 20.05 19.2371 20.2434 19.0199 20.3858C18.8029 20.5283 18.5518 20.63 18.2669 20.6912C17.9819 20.7521 17.6835 20.7827 17.3714 20.7827H13.9524Z" fill="white"/>
</g>
<path d="M40.714 21V10.5H45.844C47.164 10.5 48.154 10.75 48.814 11.25C49.484 11.75 49.819 12.41 49.819 13.23C49.819 13.78 49.684 14.26 49.414 14.67C49.144 15.07 48.774 15.38 48.304 15.6C47.834 15.82 47.294 15.93 46.684 15.93L46.969 15.315C47.629 15.315 48.214 15.425 48.724 15.645C49.234 15.855 49.629 16.17 49.909 16.59C50.199 17.01 50.344 17.525 50.344 18.135C50.344 19.035 49.989 19.74 49.279 20.25C48.569 20.75 47.524 21 46.144 21H40.714ZM43.129 19.17H45.964C46.594 19.17 47.069 19.07 47.389 18.87C47.719 18.66 47.884 18.33 47.884 17.88C47.884 17.44 47.719 17.115 47.389 16.905C47.069 16.685 46.594 16.575 45.964 16.575H42.949V14.805H45.544C46.134 14.805 46.584 14.705 46.894 14.505C47.214 14.295 47.374 13.98 47.374 13.56C47.374 13.15 47.214 12.845 46.894 12.645C46.584 12.435 46.134 12.33 45.544 12.33H43.129V19.17ZM56.0387 21.12C55.1787 21.12 54.4137 20.94 53.7437 20.58C53.0837 20.22 52.5587 19.73 52.1687 19.11C51.7887 18.48 51.5987 17.765 51.5987 16.965C51.5987 16.155 51.7887 15.44 52.1687 14.82C52.5587 14.19 53.0837 13.7 53.7437 13.35C54.4137 12.99 55.1787 12.81 56.0387 12.81C56.8887 12.81 57.6487 12.99 58.3187 13.35C58.9887 13.7 59.5137 14.185 59.8937 14.805C60.2737 15.425 60.4637 16.145 60.4637 16.965C60.4637 17.765 60.2737 18.48 59.8937 19.11C59.5137 19.73 58.9887 20.22 58.3187 20.58C57.6487 20.94 56.8887 21.12 56.0387 21.12ZM56.0387 19.2C56.4287 19.2 56.7787 19.11 57.0887 18.93C57.3987 18.75 57.6437 18.495 57.8237 18.165C58.0037 17.825 58.0937 17.425 58.0937 16.965C58.0937 16.495 58.0037 16.095 57.8237 15.765C57.6437 15.435 57.3987 15.18 57.0887 15C56.7787 14.82 56.4287 14.73 56.0387 14.73C55.6487 14.73 55.2987 14.82 54.9887 15C54.6787 15.18 54.4287 15.435 54.2387 15.765C54.0587 16.095 53.9687 16.495 53.9687 16.965C53.9687 17.425 54.0587 17.825 54.2387 18.165C54.4287 18.495 54.6787 18.75 54.9887 18.93C55.2987 19.11 55.6487 19.2 56.0387 19.2ZM66.0478 21.12C65.1878 21.12 64.4228 20.94 63.7528 20.58C63.0928 20.22 62.5678 19.73 62.1778 19.11C61.7978 18.48 61.6078 17.765 61.6078 16.965C61.6078 16.155 61.7978 15.44 62.1778 14.82C62.5678 14.19 63.0928 13.7 63.7528 13.35C64.4228 12.99 65.1878 12.81 66.0478 12.81C66.8978 12.81 67.6578 12.99 68.3278 13.35C68.9978 13.7 69.5228 14.185 69.9028 14.805C70.2828 15.425 70.4728 16.145 70.4728 16.965C70.4728 17.765 70.2828 18.48 69.9028 19.11C69.5228 19.73 68.9978 20.22 68.3278 20.58C67.6578 20.94 66.8978 21.12 66.0478 21.12ZM66.0478 19.2C66.4378 19.2 66.7878 19.11 67.0978 18.93C67.4078 18.75 67.6528 18.495 67.8328 18.165C68.0128 17.825 68.1028 17.425 68.1028 16.965C68.1028 16.495 68.0128 16.095 67.8328 15.765C67.6528 15.435 67.4078 15.18 67.0978 15C66.7878 14.82 66.4378 14.73 66.0478 14.73C65.6578 14.73 65.3078 14.82 64.9978 15C64.6878 15.18 64.4378 15.435 64.2478 15.765C64.0678 16.095 63.9778 16.495 63.9778 16.965C63.9778 17.425 64.0678 17.825 64.2478 18.165C64.4378 18.495 64.6878 18.75 64.9978 18.93C65.3078 19.11 65.6578 19.2 66.0478 19.2ZM75.5169 21.12C74.5669 21.12 73.8269 20.88 73.2969 20.4C72.7669 19.91 72.5019 19.185 72.5019 18.225V11.145H74.8419V18.195C74.8419 18.535 74.9319 18.8 75.1119 18.99C75.2919 19.17 75.5369 19.26 75.8469 19.26C76.2169 19.26 76.5319 19.16 76.7919 18.96L77.4219 20.61C77.1819 20.78 76.8919 20.91 76.5519 21C76.2219 21.08 75.8769 21.12 75.5169 21.12ZM71.2569 14.91V13.11H76.8519V14.91H71.2569ZM81.6304 21.12C80.9404 21.12 80.2754 21.04 79.6354 20.88C79.0054 20.71 78.5054 20.5 78.1354 20.25L78.9154 18.57C79.2854 18.8 79.7204 18.99 80.2204 19.14C80.7304 19.28 81.2304 19.35 81.7204 19.35C82.2604 19.35 82.6404 19.285 82.8604 19.155C83.0904 19.025 83.2054 18.845 83.2054 18.615C83.2054 18.425 83.1154 18.285 82.9354 18.195C82.7654 18.095 82.5354 18.02 82.2454 17.97C81.9554 17.92 81.6354 17.87 81.2854 17.82C80.9454 17.77 80.6004 17.705 80.2504 17.625C79.9004 17.535 79.5804 17.405 79.2904 17.235C79.0004 17.065 78.7654 16.835 78.5854 16.545C78.4154 16.255 78.3304 15.88 78.3304 15.42C78.3304 14.91 78.4754 14.46 78.7654 14.07C79.0654 13.68 79.4954 13.375 80.0554 13.155C80.6154 12.925 81.2854 12.81 82.0654 12.81C82.6154 12.81 83.1754 12.87 83.7454 12.99C84.3154 13.11 84.7904 13.285 85.1704 13.515L84.3904 15.18C84.0004 14.95 83.6054 14.795 83.2054 14.715C82.8154 14.625 82.4354 14.58 82.0654 14.58C81.5454 14.58 81.1654 14.65 80.9254 14.79C80.6854 14.93 80.5654 15.11 80.5654 15.33C80.5654 15.53 80.6504 15.68 80.8204 15.78C81.0004 15.88 81.2354 15.96 81.5254 16.02C81.8154 16.08 82.1304 16.135 82.4704 16.185C82.8204 16.225 83.1704 16.29 83.5204 16.38C83.8704 16.47 84.1854 16.6 84.4654 16.77C84.7554 16.93 84.9904 17.155 85.1704 17.445C85.3504 17.725 85.4404 18.095 85.4404 18.555C85.4404 19.055 85.2904 19.5 84.9904 19.89C84.6904 20.27 84.2554 20.57 83.6854 20.79C83.1254 21.01 82.4404 21.12 81.6304 21.12ZM90.3642 21.12C89.4142 21.12 88.6742 20.88 88.1442 20.4C87.6142 19.91 87.3492 19.185 87.3492 18.225V11.145H89.6892V18.195C89.6892 18.535 89.7792 18.8 89.9592 18.99C90.1392 19.17 90.3842 19.26 90.6942 19.26C91.0642 19.26 91.3792 19.16 91.6392 18.96L92.2692 20.61C92.0292 20.78 91.7392 20.91 91.3992 21C91.0692 21.08 90.7242 21.12 90.3642 21.12ZM86.1042 14.91V13.11H91.6992V14.91H86.1042ZM93.7628 21V12.93H95.9978V15.21L95.6828 14.55C95.9228 13.98 96.3078 13.55 96.8378 13.26C97.3678 12.96 98.0128 12.81 98.7728 12.81V14.97C98.6728 14.96 98.5828 14.955 98.5028 14.955C98.4228 14.945 98.3378 14.94 98.2478 14.94C97.6078 14.94 97.0878 15.125 96.6878 15.495C96.2978 15.855 96.1028 16.42 96.1028 17.19V21H93.7628ZM104.767 21V19.425L104.617 19.08V16.26C104.617 15.76 104.462 15.37 104.152 15.09C103.852 14.81 103.387 14.67 102.757 14.67C102.327 14.67 101.902 14.74 101.482 14.88C101.072 15.01 100.722 15.19 100.432 15.42L99.5918 13.785C100.032 13.475 100.562 13.235 101.182 13.065C101.802 12.895 102.432 12.81 103.072 12.81C104.302 12.81 105.257 13.1 105.937 13.68C106.617 14.26 106.957 15.165 106.957 16.395V21H104.767ZM102.307 21.12C101.677 21.12 101.137 21.015 100.687 20.805C100.237 20.585 99.8918 20.29 99.6518 19.92C99.4118 19.55 99.2918 19.135 99.2918 18.675C99.2918 18.195 99.4068 17.775 99.6368 17.415C99.8768 17.055 100.252 16.775 100.762 16.575C101.272 16.365 101.937 16.26 102.757 16.26H104.902V17.625H103.012C102.462 17.625 102.082 17.715 101.872 17.895C101.672 18.075 101.572 18.3 101.572 18.57C101.572 18.87 101.687 19.11 101.917 19.29C102.157 19.46 102.482 19.545 102.892 19.545C103.282 19.545 103.632 19.455 103.942 19.275C104.252 19.085 104.477 18.81 104.617 18.45L104.977 19.53C104.807 20.05 104.497 20.445 104.047 20.715C103.597 20.985 103.017 21.12 102.307 21.12ZM114.025 21.12C113.345 21.12 112.75 20.97 112.24 20.67C111.73 20.37 111.33 19.915 111.04 19.305C110.76 18.685 110.62 17.905 110.62 16.965C110.62 16.015 110.755 15.235 111.025 14.625C111.295 14.015 111.685 13.56 112.195 13.26C112.705 12.96 113.315 12.81 114.025 12.81C114.785 12.81 115.465 12.985 116.065 13.335C116.675 13.675 117.155 14.155 117.505 14.775C117.865 15.395 118.045 16.125 118.045 16.965C118.045 17.815 117.865 18.55 117.505 19.17C117.155 19.79 116.675 20.27 116.065 20.61C115.465 20.95 114.785 21.12 114.025 21.12ZM109.255 23.91V12.93H111.49V14.58L111.445 16.98L111.595 19.365V23.91H109.255ZM113.62 19.2C114.01 19.2 114.355 19.11 114.655 18.93C114.965 18.75 115.21 18.495 115.39 18.165C115.58 17.825 115.675 17.425 115.675 16.965C115.675 16.495 115.58 16.095 115.39 15.765C115.21 15.435 114.965 15.18 114.655 15C114.355 14.82 114.01 14.73 113.62 14.73C113.23 14.73 112.88 14.82 112.57 15C112.26 15.18 112.015 15.435 111.835 15.765C111.655 16.095 111.565 16.495 111.565 16.965C111.565 17.425 111.655 17.825 111.835 18.165C112.015 18.495 112.26 18.75 112.57 18.93C112.88 19.11 113.23 19.2 113.62 19.2Z" fill="white"/>
<path d="M122 0H5C2.23858 0 0 2.23858 0 5V27C0 29.7614 2.23857 32 5 32H122C124.761 32 127 29.7614 127 27V5C127 2.23858 124.761 0 122 0Z" fill="url(#paint0_linear_18_315)"/>
<defs>
<linearGradient id="paint0_linear_18_315" x1="0" y1="0" x2="0" y2="32" gradientUnits="userSpaceOnUse">
<stop stop-color="#BBBBBB" stop-opacity="0.1"/>
<stop offset="1" stop-opacity="0.1"/>
</linearGradient>
<clipPath id="clip0_18_315">
<rect width="24" height="24" fill="white" transform="translate(4 4)"/>
</clipPath>
</defs>
</svg>
