<svg width="89" height="32" viewBox="0 0 89 32" fill="none" xmlns="http://www.w3.org/2000/svg">
<g clip-path="url(#clip0_13_73)">
<path d="M84 0H31V32H84C86.7614 32 89 29.7614 89 27V5C89 2.23858 86.7614 0 84 0Z" fill="#0F1418"/>
<path d="M5 0.5H30.5V31.5H5C2.51472 31.5 0.5 29.4853 0.5 27V5C0.5 2.51472 2.51472 0.5 5 0.5Z" fill="white" stroke="#151A1E"/>
<path fill-rule="evenodd" clip-rule="evenodd" d="M14.9286 4.71145C15.2823 4.51301 15.7177 4.51301 16.0708 4.71145C17.8182 5.69218 23.0766 8.64426 24.8245 9.62499C25.1781 9.82291 25.3958 10.1896 25.3958 10.5865C25.3958 12.5479 25.3958 18.4516 25.3958 20.413C25.3958 20.8099 25.1781 21.1766 24.8245 21.375C23.0771 22.3557 17.8187 25.3078 16.0708 26.2885C15.7172 26.487 15.2818 26.487 14.9286 26.2885C13.1812 25.3078 7.92291 22.3557 6.17499 21.375C5.82186 21.1766 5.60416 20.8104 5.60416 20.4135C5.60416 18.4521 5.60416 12.5484 5.60416 10.587C5.60416 10.1901 5.82186 9.82343 6.17551 9.62499C7.92239 8.64426 13.1818 5.69218 14.9286 4.71145Z" fill="#00549D"/>
<path fill-rule="evenodd" clip-rule="evenodd" d="M5.76249 20.9188C5.62395 20.7334 5.60416 20.5573 5.60416 20.3203C5.60416 18.3703 5.60416 12.5005 5.60416 10.55C5.60416 10.1552 5.82134 9.79065 6.17395 9.59377C7.91509 8.61877 13.1557 5.68388 14.8969 4.70836C15.2495 4.51096 15.7271 4.51513 16.0797 4.71252C17.8208 5.68752 23.0437 8.59742 24.7849 9.57242C24.9255 9.65159 25.0328 9.7469 25.1286 9.87242L5.76249 20.9188Z" fill="#0086D4"/>
<path fill-rule="evenodd" clip-rule="evenodd" d="M15.5 8.20837C19.5245 8.20837 22.7917 11.4756 22.7917 15.5C22.7917 19.5245 19.5245 22.7917 15.5 22.7917C11.4755 22.7917 8.20834 19.5245 8.20834 15.5C8.20834 11.4756 11.4755 8.20837 15.5 8.20837ZM15.5 11.8542C17.512 11.8542 19.1458 13.4875 19.1458 15.5C19.1458 17.512 17.512 19.1459 15.5 19.1459C13.488 19.1459 11.8542 17.512 11.8542 15.5C11.8542 13.4875 13.4875 11.8542 15.5 11.8542Z" fill="white"/>
<path fill-rule="evenodd" clip-rule="evenodd" d="M25.1276 9.87769C25.3964 10.1292 25.3911 10.5084 25.3911 10.8069C25.3911 12.7834 25.3745 18.4053 25.3958 20.3819C25.3979 20.5881 25.3297 20.8053 25.2276 20.9688L15.288 15.5001L25.1276 9.87769Z" fill="#0075C0"/>
<path fill-rule="evenodd" clip-rule="evenodd" d="M19.1458 13.9375H20.1875V17.0625H19.1458V13.9375ZM22.7917 13.9375H23.8333V17.0625H22.7917V13.9375Z" fill="white"/>
<path fill-rule="evenodd" clip-rule="evenodd" d="M18.1042 14.9791H21.2292V16.0208H18.1042V14.9791ZM21.75 14.9791H24.875V16.0208H21.75V14.9791Z" fill="white"/>
<path d="M51.11 21.18C50.3 21.18 49.545 21.05 48.845 20.79C48.155 20.52 47.555 20.14 47.045 19.65C46.535 19.16 46.135 18.585 45.845 17.925C45.565 17.265 45.425 16.54 45.425 15.75C45.425 14.96 45.565 14.235 45.845 13.575C46.135 12.915 46.535 12.34 47.045 11.85C47.565 11.36 48.17 10.985 48.86 10.725C49.55 10.455 50.305 10.32 51.125 10.32C52.035 10.32 52.855 10.48 53.585 10.8C54.325 11.11 54.945 11.57 55.445 12.18L53.885 13.62C53.525 13.21 53.125 12.905 52.685 12.705C52.245 12.495 51.765 12.39 51.245 12.39C50.755 12.39 50.305 12.47 49.895 12.63C49.485 12.79 49.13 13.02 48.83 13.32C48.53 13.62 48.295 13.975 48.125 14.385C47.965 14.795 47.885 15.25 47.885 15.75C47.885 16.25 47.965 16.705 48.125 17.115C48.295 17.525 48.53 17.88 48.83 18.18C49.13 18.48 49.485 18.71 49.895 18.87C50.305 19.03 50.755 19.11 51.245 19.11C51.765 19.11 52.245 19.01 52.685 18.81C53.125 18.6 53.525 18.285 53.885 17.865L55.445 19.305C54.945 19.915 54.325 20.38 53.585 20.7C52.855 21.02 52.03 21.18 51.11 21.18ZM59.4874 19.215V12.285H61.4224V19.215H59.4874ZM56.8924 16.665V14.835H64.0324V16.665H56.8924ZM68.7055 19.215V12.285H70.6405V19.215H68.7055ZM66.1105 16.665V14.835H73.2505V16.665H66.1105Z" fill="white"/>
<path d="M84 0H5C2.23858 0 0 2.23858 0 5V27C0 29.7614 2.23857 32 5 32H84C86.7614 32 89 29.7614 89 27V5C89 2.23858 86.7614 0 84 0Z" fill="url(#paint0_linear_13_73)"/>
</g>
<defs>
<linearGradient id="paint0_linear_13_73" x1="0" y1="0" x2="0" y2="32" gradientUnits="userSpaceOnUse">
<stop stop-color="#BBBBBB" stop-opacity="0.1"/>
<stop offset="1" stop-opacity="0.1"/>
</linearGradient>
<clipPath id="clip0_13_73">
<rect width="89" height="32" fill="white"/>
</clipPath>
</defs>
</svg>
