<svg width="92" height="32" viewBox="0 0 92 32" fill="none" xmlns="http://www.w3.org/2000/svg">
<path d="M87 0H31V32H87C89.7614 32 92 29.7614 92 27V5C92 2.23858 89.7614 0 87 0Z" fill="#0F1418"/>
<path d="M31 0H5C2.23858 0 0 2.23858 0 5V27C0 29.7614 2.23858 32 5 32H31V0Z" fill="#3C92C7"/>
<path d="M25.0599 26.6664L16.5158 29L7.97164 26.6664L6 5H27.0319L25.0599 26.6664Z" fill="white"/>
<path d="M16.5158 6.755V27.1388L16.5351 27.1442L23.4495 25.2556L25.0454 6.755H16.5158Z" fill="white"/>
<path d="M16.5082 12.1723L10.3929 14.7557L10.5957 17.3134L16.5082 14.7492L22.7975 12.0218L23.0583 9.40527L16.5082 12.1723Z" fill="#3C9CD7"/>
<path d="M10.3929 14.7558L10.5956 17.3136L16.5082 14.7494V12.1725L10.3929 14.7558Z" fill="#3C9CD7"/>
<path d="M23.0583 9.40552L16.5082 12.1725V14.7494L22.7975 12.0219L23.0583 9.40552Z" fill="#3C9CD7"/>
<path d="M10.4023 14.7557L10.6051 17.3135L19.6771 17.3427L19.4741 20.753L16.489 21.6055L13.6193 20.8705L13.4454 18.7538H10.779L11.1268 22.8402L16.5179 24.4571L21.8798 22.8696L22.5755 14.7557H10.4023Z" fill="#3C9CD7"/>
<path d="M16.5082 14.7557H10.3929L10.5957 17.3135L16.5082 17.3325V14.7557ZM16.5082 21.5974L16.4792 21.6055L13.61 20.8706L13.4361 18.7538H10.7697L11.1175 22.8403L16.5082 24.4572V21.5974Z" fill="#3C9CD7"/>
<path d="M9.84216 9.40552H23.0583L22.7975 12.022H10.1609L9.84216 9.40552Z" fill="#3C9CD7"/>
<path opacity="0.05" d="M16.5082 9.40552H9.84216L10.1609 12.022H16.5082V9.40552Z" fill="#3C9CD7"/>
<path d="M47.2119 21.18C46.4019 21.18 45.6469 21.05 44.9469 20.79C44.2569 20.52 43.6569 20.14 43.1469 19.65C42.6369 19.16 42.2369 18.585 41.9469 17.925C41.6669 17.265 41.5269 16.54 41.5269 15.75C41.5269 14.96 41.6669 14.235 41.9469 13.575C42.2369 12.915 42.6369 12.34 43.1469 11.85C43.6669 11.36 44.2719 10.985 44.9619 10.725C45.6519 10.455 46.4069 10.32 47.2269 10.32C48.1369 10.32 48.9569 10.48 49.6869 10.8C50.4269 11.11 51.0469 11.57 51.5469 12.18L49.9869 13.62C49.6269 13.21 49.2269 12.905 48.7869 12.705C48.3469 12.495 47.8669 12.39 47.3469 12.39C46.8569 12.39 46.4069 12.47 45.9969 12.63C45.5869 12.79 45.2319 13.02 44.9319 13.32C44.6319 13.62 44.3969 13.975 44.2269 14.385C44.0669 14.795 43.9869 15.25 43.9869 15.75C43.9869 16.25 44.0669 16.705 44.2269 17.115C44.3969 17.525 44.6319 17.88 44.9319 18.18C45.2319 18.48 45.5869 18.71 45.9969 18.87C46.4069 19.03 46.8569 19.11 47.3469 19.11C47.8669 19.11 48.3469 19.01 48.7869 18.81C49.2269 18.6 49.6269 18.285 49.9869 17.865L51.5469 19.305C51.0469 19.915 50.4269 20.38 49.6869 20.7C48.9569 21.02 48.1319 21.18 47.2119 21.18ZM56.7593 21.18C55.9193 21.18 55.1143 21.07 54.3443 20.85C53.5743 20.62 52.9543 20.325 52.4843 19.965L53.3093 18.135C53.7593 18.455 54.2893 18.72 54.8993 18.93C55.5193 19.13 56.1443 19.23 56.7743 19.23C57.2543 19.23 57.6393 19.185 57.9293 19.095C58.2293 18.995 58.4493 18.86 58.5893 18.69C58.7293 18.52 58.7993 18.325 58.7993 18.105C58.7993 17.825 58.6893 17.605 58.4693 17.445C58.2493 17.275 57.9593 17.14 57.5993 17.04C57.2393 16.93 56.8393 16.83 56.3993 16.74C55.9693 16.64 55.5343 16.52 55.0943 16.38C54.6643 16.24 54.2693 16.06 53.9093 15.84C53.5493 15.62 53.2543 15.33 53.0243 14.97C52.8043 14.61 52.6943 14.15 52.6943 13.59C52.6943 12.99 52.8543 12.445 53.1743 11.955C53.5043 11.455 53.9943 11.06 54.6443 10.77C55.3043 10.47 56.1293 10.32 57.1193 10.32C57.7793 10.32 58.4293 10.4 59.0693 10.56C59.7093 10.71 60.2743 10.94 60.7643 11.25L60.0143 13.095C59.5243 12.815 59.0343 12.61 58.5443 12.48C58.0543 12.34 57.5743 12.27 57.1043 12.27C56.6343 12.27 56.2493 12.325 55.9493 12.435C55.6493 12.545 55.4343 12.69 55.3043 12.87C55.1743 13.04 55.1093 13.24 55.1093 13.47C55.1093 13.74 55.2193 13.96 55.4393 14.13C55.6593 14.29 55.9493 14.42 56.3093 14.52C56.6693 14.62 57.0643 14.72 57.4943 14.82C57.9343 14.92 58.3693 15.035 58.7993 15.165C59.2393 15.295 59.6393 15.47 59.9993 15.69C60.3593 15.91 60.6493 16.2 60.8693 16.56C61.0993 16.92 61.2143 17.375 61.2143 17.925C61.2143 18.515 61.0493 19.055 60.7193 19.545C60.3893 20.035 59.8943 20.43 59.2343 20.73C58.5843 21.03 57.7593 21.18 56.7593 21.18ZM66.5047 21.18C65.6647 21.18 64.8597 21.07 64.0897 20.85C63.3197 20.62 62.6997 20.325 62.2297 19.965L63.0547 18.135C63.5047 18.455 64.0347 18.72 64.6447 18.93C65.2647 19.13 65.8897 19.23 66.5197 19.23C66.9997 19.23 67.3847 19.185 67.6747 19.095C67.9747 18.995 68.1947 18.86 68.3347 18.69C68.4747 18.52 68.5447 18.325 68.5447 18.105C68.5447 17.825 68.4347 17.605 68.2147 17.445C67.9947 17.275 67.7047 17.14 67.3447 17.04C66.9847 16.93 66.5847 16.83 66.1447 16.74C65.7147 16.64 65.2797 16.52 64.8397 16.38C64.4097 16.24 64.0147 16.06 63.6547 15.84C63.2947 15.62 62.9997 15.33 62.7697 14.97C62.5497 14.61 62.4397 14.15 62.4397 13.59C62.4397 12.99 62.5997 12.445 62.9197 11.955C63.2497 11.455 63.7397 11.06 64.3897 10.77C65.0497 10.47 65.8747 10.32 66.8647 10.32C67.5247 10.32 68.1747 10.4 68.8147 10.56C69.4547 10.71 70.0197 10.94 70.5097 11.25L69.7597 13.095C69.2697 12.815 68.7797 12.61 68.2897 12.48C67.7997 12.34 67.3197 12.27 66.8497 12.27C66.3797 12.27 65.9947 12.325 65.6947 12.435C65.3947 12.545 65.1797 12.69 65.0497 12.87C64.9197 13.04 64.8547 13.24 64.8547 13.47C64.8547 13.74 64.9647 13.96 65.1847 14.13C65.4047 14.29 65.6947 14.42 66.0547 14.52C66.4147 14.62 66.8097 14.72 67.2397 14.82C67.6797 14.92 68.1147 15.035 68.5447 15.165C68.9847 15.295 69.3847 15.47 69.7447 15.69C70.1047 15.91 70.3947 16.2 70.6147 16.56C70.8447 16.92 70.9597 17.375 70.9597 17.925C70.9597 18.515 70.7947 19.055 70.4647 19.545C70.1347 20.035 69.6397 20.43 68.9797 20.73C68.3297 21.03 67.5047 21.18 66.5047 21.18ZM76.5052 21.18C75.6552 21.18 74.8552 21.075 74.1052 20.865C73.3552 20.655 72.7352 20.365 72.2452 19.995L73.2652 18.135C73.6952 18.445 74.1752 18.69 74.7052 18.87C75.2452 19.05 75.8302 19.14 76.4602 19.14C77.1302 19.14 77.6452 19.02 78.0052 18.78C78.3752 18.54 78.5602 18.21 78.5602 17.79C78.5602 17.39 78.3902 17.075 78.0502 16.845C77.7102 16.615 77.1852 16.5 76.4752 16.5H75.2752V14.895L78.3952 11.58L78.6952 12.45H72.6652V10.5H80.5252V12.075L77.4202 15.39L76.2802 14.685H76.9702C78.2802 14.685 79.2802 14.975 79.9702 15.555C80.6602 16.135 81.0052 16.88 81.0052 17.79C81.0052 18.38 80.8452 18.935 80.5252 19.455C80.2052 19.965 79.7152 20.38 79.0552 20.7C78.3952 21.02 77.5452 21.18 76.5052 21.18Z" fill="white"/>
<path d="M87 0H5C2.23858 0 0 2.23858 0 5V27C0 29.7614 2.23857 32 5 32H87C89.7614 32 92 29.7614 92 27V5C92 2.23858 89.7614 0 87 0Z" fill="url(#paint0_linear_17_84)"/>
<defs>
<linearGradient id="paint0_linear_17_84" x1="0" y1="0" x2="0" y2="32" gradientUnits="userSpaceOnUse">
<stop stop-color="#BBBBBB" stop-opacity="0.1"/>
<stop offset="1" stop-opacity="0.1"/>
</linearGradient>
</defs>
</svg>
