<svg width="100" height="32" viewBox="0 0 100 32" fill="none" xmlns="http://www.w3.org/2000/svg">
<path d="M95 0H31V32H95C97.7614 32 100 29.7614 100 27V5C100 2.23858 97.7614 0 95 0Z" fill="#0F1418"/>
<path d="M31 0H5C2.23858 0 0 2.23858 0 5V27C0 29.7614 2.23858 32 5 32H31V0Z" fill="#E44D26"/>
<path d="M6 4L7.86964 25.2036L16.2589 28L24.7018 25.2036L26.5714 4H6ZM22.5107 10.8518H12.6643L12.8839 13.4982H22.2911L21.5625 21.4482L16.3179 22.8946V22.9107H16.2589L10.9714 21.4482L10.65 17.3875H13.2054L13.3929 19.4286L16.2589 20.2054L19.1357 19.4286L19.4571 16.0964H10.5161L9.83036 8.29643H22.7464L22.5107 10.8518Z" fill="white"/>
<path d="M51.2922 10.5H53.7222V21H51.2922V10.5ZM46.5222 21H44.0922V10.5H46.5222V21ZM51.4722 16.695H46.3422V14.64H51.4722V16.695ZM58.5614 21V12.48H55.2014V10.5H64.3514V12.48H60.9914V21H58.5614ZM65.8389 21V10.5H67.8489L72.3189 17.91H71.2539L75.6489 10.5H77.6439L77.6739 21H75.3939L75.3789 13.995H75.7989L72.2889 19.89H71.1939L67.6089 13.995H68.1189V21H65.8389ZM80.3451 21V10.5H82.7751V19.02H88.0401V21H80.3451Z" fill="white"/>
<path d="M95 0H5C2.23858 0 0 2.23858 0 5V27C0 29.7614 2.23858 32 5 32H95C97.7614 32 100 29.7614 100 27V5C100 2.23858 97.7614 0 95 0Z" fill="url(#paint0_linear_2_938)"/>
<defs>
<linearGradient id="paint0_linear_2_938" x1="0" y1="0" x2="0" y2="32" gradientUnits="userSpaceOnUse">
<stop stop-color="#BBBBBB" stop-opacity="0.1"/>
<stop offset="1" stop-opacity="0.1"/>
</linearGradient>
</defs>
</svg>
