<svg width="87" height="32" viewBox="0 0 87 32" fill="none" xmlns="http://www.w3.org/2000/svg">
<path d="M82 0H31V32H82C84.7614 32 87 29.7614 87 27V5C87 2.23858 84.7614 0 82 0Z" fill="#0F1418"/>
<path d="M31 0H5C2.23858 0 0 2.23858 0 5V27C0 29.7614 2.23858 32 5 32H31V0Z" fill="#CB3837"/>
<path d="M19.8359 17.667C20.2953 17.3529 20.9328 17.0811 20.9328 17.0811C20.9328 17.0811 19.1187 17.4092 17.3141 17.5592C15.1063 17.742 12.7344 17.7795 11.5438 17.6201C8.72668 17.2451 13.0907 16.2092 13.0907 16.2092C13.0907 16.2092 11.3985 16.0967 9.31261 17.0998C6.85171 18.2904 15.4063 18.8342 19.8359 17.667ZM15.8328 16.1623C14.9422 14.1608 11.9376 12.403 15.8328 9.32804C20.6918 5.49372 18.2 3 18.2 3C19.2078 6.96089 14.6563 8.16087 13.011 10.6218C11.8907 12.3046 13.5594 14.1092 15.8328 16.1623ZM21.2046 7.90306C21.2093 7.90306 12.9923 9.95616 16.9156 14.4748C18.0734 15.8061 16.611 17.0061 16.611 17.0061C16.611 17.0061 19.55 15.4873 18.2 13.5889C16.9391 11.8171 15.9735 10.9358 21.2046 7.90306ZM20.9187 20.5826C20.8931 20.6272 20.8616 20.6682 20.825 20.7045C26.8389 19.1248 24.6265 15.1311 21.7531 16.1436C21.5979 16.2006 21.4638 16.3036 21.3687 16.4389C21.5365 16.3782 21.7089 16.3311 21.8843 16.2983C23.3374 15.9936 25.4233 18.2435 20.9187 20.5826ZM23.1293 23.5029C23.1293 23.5029 23.809 24.0607 22.384 24.4966C19.67 25.3169 11.0967 25.5653 8.71543 24.5294C7.85763 24.1591 9.46542 23.6388 9.97167 23.531C10.4967 23.4185 10.8013 23.4372 10.8013 23.4372C9.84979 22.7669 4.64674 24.7544 8.15763 25.3216C17.7313 26.8778 25.6136 24.6232 23.1293 23.5029ZM12.6501 21.5623C8.96106 22.5935 14.8954 24.7216 19.5922 22.7107C19.1341 22.5327 18.6919 22.3163 18.2703 22.0638C16.175 22.4622 15.2047 22.4904 13.3016 22.2747C11.7313 22.0966 12.6501 21.5623 12.6501 21.5623ZM21.0781 26.1184C17.3891 26.8122 12.8376 26.7325 10.1423 26.2872C10.1423 26.2825 10.6954 26.7419 13.536 26.9247C17.8578 27.2012 24.4952 26.77 24.6499 24.7263C24.6499 24.7263 24.3499 25.4997 21.0781 26.1184ZM19.0344 19.5467C16.2594 20.081 14.6516 20.067 12.6219 19.856C11.0517 19.692 12.0782 18.9326 12.0782 18.9326C8.00951 20.2826 14.3375 21.8107 20.0234 20.1466C19.6559 20.0169 19.3192 19.8126 19.0344 19.5467Z" fill="white"/>
<path d="M44.3172 21.18C43.6072 21.18 42.9522 21.05 42.3522 20.79C41.7622 20.52 41.2772 20.14 40.8972 19.65L42.2472 18.03C42.5372 18.41 42.8422 18.7 43.1622 18.9C43.4822 19.09 43.8272 19.185 44.1972 19.185C45.1872 19.185 45.6822 18.605 45.6822 17.445V12.45H41.9922V10.5H48.0972V17.31C48.0972 18.61 47.7772 19.58 47.1372 20.22C46.4972 20.86 45.5572 21.18 44.3172 21.18ZM55.4625 21V19.425L55.3125 19.08V16.26C55.3125 15.76 55.1575 15.37 54.8475 15.09C54.5475 14.81 54.0825 14.67 53.4525 14.67C53.0225 14.67 52.5975 14.74 52.1775 14.88C51.7675 15.01 51.4175 15.19 51.1275 15.42L50.2875 13.785C50.7275 13.475 51.2575 13.235 51.8775 13.065C52.4975 12.895 53.1275 12.81 53.7675 12.81C54.9975 12.81 55.9525 13.1 56.6325 13.68C57.3125 14.26 57.6525 15.165 57.6525 16.395V21H55.4625ZM53.0025 21.12C52.3725 21.12 51.8325 21.015 51.3825 20.805C50.9325 20.585 50.5875 20.29 50.3475 19.92C50.1075 19.55 49.9875 19.135 49.9875 18.675C49.9875 18.195 50.1025 17.775 50.3325 17.415C50.5725 17.055 50.9475 16.775 51.4575 16.575C51.9675 16.365 52.6325 16.26 53.4525 16.26H55.5975V17.625H53.7075C53.1575 17.625 52.7775 17.715 52.5675 17.895C52.3675 18.075 52.2675 18.3 52.2675 18.57C52.2675 18.87 52.3825 19.11 52.6125 19.29C52.8525 19.46 53.1775 19.545 53.5875 19.545C53.9775 19.545 54.3275 19.455 54.6375 19.275C54.9475 19.085 55.1725 18.81 55.3125 18.45L55.6725 19.53C55.5025 20.05 55.1925 20.445 54.7425 20.715C54.2925 20.985 53.7125 21.12 53.0025 21.12ZM61.9938 21L58.6038 12.93H61.0188L63.8388 19.875H62.6388L65.5638 12.93H67.8138L64.4088 21H61.9938ZM73.635 21V19.425L73.485 19.08V16.26C73.485 15.76 73.33 15.37 73.02 15.09C72.72 14.81 72.255 14.67 71.625 14.67C71.195 14.67 70.77 14.74 70.35 14.88C69.94 15.01 69.59 15.19 69.3 15.42L68.46 13.785C68.9 13.475 69.43 13.235 70.05 13.065C70.67 12.895 71.3 12.81 71.94 12.81C73.17 12.81 74.125 13.1 74.805 13.68C75.485 14.26 75.825 15.165 75.825 16.395V21H73.635ZM71.175 21.12C70.545 21.12 70.005 21.015 69.555 20.805C69.105 20.585 68.76 20.29 68.52 19.92C68.28 19.55 68.16 19.135 68.16 18.675C68.16 18.195 68.275 17.775 68.505 17.415C68.745 17.055 69.12 16.775 69.63 16.575C70.14 16.365 70.805 16.26 71.625 16.26H73.77V17.625H71.88C71.33 17.625 70.95 17.715 70.74 17.895C70.54 18.075 70.44 18.3 70.44 18.57C70.44 18.87 70.555 19.11 70.785 19.29C71.025 19.46 71.35 19.545 71.76 19.545C72.15 19.545 72.5 19.455 72.81 19.275C73.12 19.085 73.345 18.81 73.485 18.45L73.845 19.53C73.675 20.05 73.365 20.445 72.915 20.715C72.465 20.985 71.885 21.12 71.175 21.12Z" fill="white"/>
<path d="M82 0H5C2.23858 0 0 2.23858 0 5V27C0 29.7614 2.23858 32 5 32H82C84.7614 32 87 29.7614 87 27V5C87 2.23858 84.7614 0 82 0Z" fill="url(#paint0_linear_2_831)"/>
<defs>
<linearGradient id="paint0_linear_2_831" x1="0" y1="0" x2="0" y2="32" gradientUnits="userSpaceOnUse">
<stop stop-color="#BBBBBB" stop-opacity="0.1"/>
<stop offset="1" stop-opacity="0.1"/>
</linearGradient>
</defs>
</svg>
