<svg width="130" height="32" viewBox="0 0 130 32" fill="none" xmlns="http://www.w3.org/2000/svg">
<path d="M125 0H31V32H125C127.761 32 130 29.7614 130 27V5C130 2.23858 127.761 0 125 0Z" fill="#0F1418"/>
<path d="M31 0H5C2.23858 0 0 2.23858 0 5V27C0 29.7614 2.23858 32 5 32H31V0Z" fill="#F1C731"/>
<path d="M15.3346 28.0498C15.0155 28.0498 14.6917 27.9641 14.4107 27.8022L11.4723 26.0639C11.0342 25.8162 11.2485 25.7305 11.3913 25.6829C11.9771 25.4781 12.0962 25.4353 12.72 25.0781C12.7867 25.04 12.8724 25.0543 12.9391 25.0971L15.1965 26.4354C15.2774 26.483 15.3917 26.483 15.4679 26.4354L24.264 21.3587C24.345 21.311 24.3974 21.2158 24.3974 21.1205V10.9672C24.3974 10.8671 24.345 10.7767 24.2593 10.7243L15.4679 5.65234C15.387 5.60472 15.2774 5.60472 15.1965 5.65234L6.40989 10.729C6.32417 10.7767 6.27178 10.8719 6.27178 10.9719V21.1205C6.27178 21.2158 6.32417 21.311 6.40989 21.3539L8.81965 22.7445C10.1293 23.397 10.9294 22.6302 10.9294 21.854V11.8339C10.9294 11.691 11.0437 11.5815 11.1866 11.5815H12.3009C12.4391 11.5815 12.5581 11.691 12.5581 11.8339V21.8587C12.5581 23.6017 11.6056 24.6018 9.9531 24.6018C9.44352 24.6018 9.04348 24.6018 7.92909 24.0494L5.6241 22.7207C5.05261 22.3921 4.7002 21.7778 4.7002 21.1158V10.9672C4.7002 10.3099 5.05261 9.69084 5.6241 9.36224L14.4107 4.28554C14.9679 3.97123 15.706 3.97123 16.2585 4.28554L25.0546 9.367C25.6261 9.6956 25.9785 10.3099 25.9785 10.9719V21.1205C25.9785 21.7778 25.6261 22.3921 25.0546 22.7255L16.2585 27.8022C15.9775 27.9641 15.6584 28.0498 15.3346 28.0498ZM22.4353 18.0441C22.4353 16.1439 21.1494 15.639 18.4492 15.2819C15.7156 14.9199 15.4394 14.7342 15.4394 14.096C15.4394 13.5674 15.6727 12.8626 17.6967 12.8626C19.5017 12.8626 20.1684 13.2531 20.4446 14.4723C20.4684 14.5866 20.5732 14.6723 20.6923 14.6723H21.8352C21.9067 14.6723 21.9733 14.6437 22.021 14.5913C22.0686 14.5389 22.0924 14.4675 22.0876 14.3961C21.9114 12.2959 20.516 11.3196 17.6967 11.3196C15.1869 11.3196 13.6916 12.3768 13.6916 14.1532C13.6916 16.0772 15.1822 16.6106 17.5872 16.8487C20.4684 17.1297 20.6923 17.5535 20.6923 18.1202C20.6923 19.1013 19.9017 19.5204 18.0491 19.5204C15.7203 19.5204 15.2108 18.9346 15.0393 17.7774C15.0203 17.6535 14.9155 17.5631 14.7869 17.5631H13.6487C13.5058 17.5631 13.3963 17.6773 13.3963 17.8155C13.3963 19.2966 14.2011 21.0634 18.0539 21.0634C20.8351 21.0586 22.4353 19.9585 22.4353 18.0441Z" fill="white"/>
<path d="M42.162 21.18C41.452 21.18 40.797 21.05 40.197 20.79C39.607 20.52 39.122 20.14 38.742 19.65L40.092 18.03C40.382 18.41 40.687 18.7 41.007 18.9C41.327 19.09 41.672 19.185 42.042 19.185C43.032 19.185 43.527 18.605 43.527 17.445V12.45H39.837V10.5H45.942V17.31C45.942 18.61 45.622 19.58 44.982 20.22C44.342 20.86 43.402 21.18 42.162 21.18ZM53.3072 21V19.425L53.1572 19.08V16.26C53.1572 15.76 53.0022 15.37 52.6922 15.09C52.3922 14.81 51.9272 14.67 51.2972 14.67C50.8672 14.67 50.4422 14.74 50.0222 14.88C49.6122 15.01 49.2622 15.19 48.9722 15.42L48.1322 13.785C48.5722 13.475 49.1022 13.235 49.7222 13.065C50.3422 12.895 50.9722 12.81 51.6122 12.81C52.8422 12.81 53.7972 13.1 54.4772 13.68C55.1572 14.26 55.4972 15.165 55.4972 16.395V21H53.3072ZM50.8472 21.12C50.2172 21.12 49.6772 21.015 49.2272 20.805C48.7772 20.585 48.4322 20.29 48.1922 19.92C47.9522 19.55 47.8322 19.135 47.8322 18.675C47.8322 18.195 47.9472 17.775 48.1772 17.415C48.4172 17.055 48.7922 16.775 49.3022 16.575C49.8122 16.365 50.4772 16.26 51.2972 16.26H53.4422V17.625H51.5522C51.0022 17.625 50.6222 17.715 50.4122 17.895C50.2122 18.075 50.1122 18.3 50.1122 18.57C50.1122 18.87 50.2272 19.11 50.4572 19.29C50.6972 19.46 51.0222 19.545 51.4322 19.545C51.8222 19.545 52.1722 19.455 52.4822 19.275C52.7922 19.085 53.0172 18.81 53.1572 18.45L53.5172 19.53C53.3472 20.05 53.0372 20.445 52.5872 20.715C52.1372 20.985 51.5572 21.12 50.8472 21.12ZM59.8386 21L56.4486 12.93H58.8636L61.6836 19.875H60.4836L63.4086 12.93H65.6586L62.2536 21H59.8386ZM71.4797 21V19.425L71.3297 19.08V16.26C71.3297 15.76 71.1747 15.37 70.8647 15.09C70.5647 14.81 70.0997 14.67 69.4697 14.67C69.0397 14.67 68.6147 14.74 68.1947 14.88C67.7847 15.01 67.4347 15.19 67.1447 15.42L66.3047 13.785C66.7447 13.475 67.2747 13.235 67.8947 13.065C68.5147 12.895 69.1447 12.81 69.7847 12.81C71.0147 12.81 71.9697 13.1 72.6497 13.68C73.3297 14.26 73.6697 15.165 73.6697 16.395V21H71.4797ZM69.0197 21.12C68.3897 21.12 67.8497 21.015 67.3997 20.805C66.9497 20.585 66.6047 20.29 66.3647 19.92C66.1247 19.55 66.0047 19.135 66.0047 18.675C66.0047 18.195 66.1197 17.775 66.3497 17.415C66.5897 17.055 66.9647 16.775 67.4747 16.575C67.9847 16.365 68.6497 16.26 69.4697 16.26H71.6147V17.625H69.7247C69.1747 17.625 68.7947 17.715 68.5847 17.895C68.3847 18.075 68.2847 18.3 68.2847 18.57C68.2847 18.87 68.3997 19.11 68.6297 19.29C68.8697 19.46 69.1947 19.545 69.6047 19.545C69.9947 19.545 70.3447 19.455 70.6547 19.275C70.9647 19.085 71.1897 18.81 71.3297 18.45L71.6897 19.53C71.5197 20.05 71.2097 20.445 70.7597 20.715C70.3097 20.985 69.7297 21.12 69.0197 21.12ZM79.5825 21.18C78.7425 21.18 77.9375 21.07 77.1675 20.85C76.3975 20.62 75.7775 20.325 75.3075 19.965L76.1325 18.135C76.5825 18.455 77.1125 18.72 77.7225 18.93C78.3425 19.13 78.9675 19.23 79.5975 19.23C80.0775 19.23 80.4625 19.185 80.7525 19.095C81.0525 18.995 81.2725 18.86 81.4125 18.69C81.5525 18.52 81.6225 18.325 81.6225 18.105C81.6225 17.825 81.5125 17.605 81.2925 17.445C81.0725 17.275 80.7825 17.14 80.4225 17.04C80.0625 16.93 79.6625 16.83 79.2225 16.74C78.7925 16.64 78.3575 16.52 77.9175 16.38C77.4875 16.24 77.0925 16.06 76.7325 15.84C76.3725 15.62 76.0775 15.33 75.8475 14.97C75.6275 14.61 75.5175 14.15 75.5175 13.59C75.5175 12.99 75.6775 12.445 75.9975 11.955C76.3275 11.455 76.8175 11.06 77.4675 10.77C78.1275 10.47 78.9525 10.32 79.9425 10.32C80.6025 10.32 81.2525 10.4 81.8925 10.56C82.5325 10.71 83.0975 10.94 83.5875 11.25L82.8375 13.095C82.3475 12.815 81.8575 12.61 81.3675 12.48C80.8775 12.34 80.3975 12.27 79.9275 12.27C79.4575 12.27 79.0725 12.325 78.7725 12.435C78.4725 12.545 78.2575 12.69 78.1275 12.87C77.9975 13.04 77.9325 13.24 77.9325 13.47C77.9325 13.74 78.0425 13.96 78.2625 14.13C78.4825 14.29 78.7725 14.42 79.1325 14.52C79.4925 14.62 79.8875 14.72 80.3175 14.82C80.7575 14.92 81.1925 15.035 81.6225 15.165C82.0625 15.295 82.4625 15.47 82.8225 15.69C83.1825 15.91 83.4725 16.2 83.6925 16.56C83.9225 16.92 84.0375 17.375 84.0375 17.925C84.0375 18.515 83.8725 19.055 83.5425 19.545C83.2125 20.035 82.7175 20.43 82.0575 20.73C81.4075 21.03 80.5825 21.18 79.5825 21.18ZM89.613 21.12C88.743 21.12 87.968 20.945 87.288 20.595C86.608 20.235 86.073 19.74 85.683 19.11C85.303 18.48 85.113 17.765 85.113 16.965C85.113 16.155 85.303 15.44 85.683 14.82C86.073 14.19 86.608 13.7 87.288 13.35C87.968 12.99 88.743 12.81 89.613 12.81C90.463 12.81 91.203 12.99 91.833 13.35C92.463 13.7 92.928 14.205 93.228 14.865L91.413 15.84C91.203 15.46 90.938 15.18 90.618 15C90.308 14.82 89.968 14.73 89.598 14.73C89.198 14.73 88.838 14.82 88.518 15C88.198 15.18 87.943 15.435 87.753 15.765C87.573 16.095 87.483 16.495 87.483 16.965C87.483 17.435 87.573 17.835 87.753 18.165C87.943 18.495 88.198 18.75 88.518 18.93C88.838 19.11 89.198 19.2 89.598 19.2C89.968 19.2 90.308 19.115 90.618 18.945C90.938 18.765 91.203 18.48 91.413 18.09L93.228 19.08C92.928 19.73 92.463 20.235 91.833 20.595C91.203 20.945 90.463 21.12 89.613 21.12ZM94.7553 21V12.93H96.9903V15.21L96.6753 14.55C96.9153 13.98 97.3003 13.55 97.8303 13.26C98.3603 12.96 99.0053 12.81 99.7653 12.81V14.97C99.6653 14.96 99.5753 14.955 99.4953 14.955C99.4153 14.945 99.3303 14.94 99.2403 14.94C98.6003 14.94 98.0803 15.125 97.6803 15.495C97.2903 15.855 97.0953 16.42 97.0953 17.19V21H94.7553ZM101.351 21V12.93H103.691V21H101.351ZM102.521 11.805C102.091 11.805 101.741 11.68 101.471 11.43C101.201 11.18 101.066 10.87 101.066 10.5C101.066 10.13 101.201 9.82 101.471 9.57C101.741 9.32 102.091 9.195 102.521 9.195C102.951 9.195 103.301 9.315 103.571 9.555C103.841 9.785 103.976 10.085 103.976 10.455C103.976 10.845 103.841 11.17 103.571 11.43C103.311 11.68 102.961 11.805 102.521 11.805ZM110.813 21.12C110.133 21.12 109.538 20.97 109.028 20.67C108.518 20.37 108.118 19.915 107.828 19.305C107.548 18.685 107.408 17.905 107.408 16.965C107.408 16.015 107.543 15.235 107.813 14.625C108.083 14.015 108.473 13.56 108.983 13.26C109.493 12.96 110.103 12.81 110.813 12.81C111.573 12.81 112.253 12.985 112.853 13.335C113.463 13.675 113.943 14.155 114.293 14.775C114.653 15.395 114.833 16.125 114.833 16.965C114.833 17.815 114.653 18.55 114.293 19.17C113.943 19.79 113.463 20.27 112.853 20.61C112.253 20.95 111.573 21.12 110.813 21.12ZM106.043 23.91V12.93H108.278V14.58L108.233 16.98L108.383 19.365V23.91H106.043ZM110.408 19.2C110.798 19.2 111.143 19.11 111.443 18.93C111.753 18.75 111.998 18.495 112.178 18.165C112.368 17.825 112.463 17.425 112.463 16.965C112.463 16.495 112.368 16.095 112.178 15.765C111.998 15.435 111.753 15.18 111.443 15C111.143 14.82 110.798 14.73 110.408 14.73C110.018 14.73 109.668 14.82 109.358 15C109.048 15.18 108.803 15.435 108.623 15.765C108.443 16.095 108.353 16.495 108.353 16.965C108.353 17.425 108.443 17.825 108.623 18.165C108.803 18.495 109.048 18.75 109.358 18.93C109.668 19.11 110.018 19.2 110.408 19.2ZM119.879 21.12C118.929 21.12 118.189 20.88 117.659 20.4C117.129 19.91 116.864 19.185 116.864 18.225V11.145H119.204V18.195C119.204 18.535 119.294 18.8 119.474 18.99C119.654 19.17 119.899 19.26 120.209 19.26C120.579 19.26 120.894 19.16 121.154 18.96L121.784 20.61C121.544 20.78 121.254 20.91 120.914 21C120.584 21.08 120.239 21.12 119.879 21.12ZM115.619 14.91V13.11H121.214V14.91H115.619Z" fill="white"/>
<path d="M125 0H5C2.23858 0 0 2.23858 0 5V27C0 29.7614 2.23858 32 5 32H125C127.761 32 130 29.7614 130 27V5C130 2.23858 127.761 0 125 0Z" fill="url(#paint0_linear_2_874)"/>
<defs>
<linearGradient id="paint0_linear_2_874" x1="0" y1="0" x2="0" y2="32" gradientUnits="userSpaceOnUse">
<stop stop-color="#BBBBBB" stop-opacity="0.1"/>
<stop offset="1" stop-opacity="0.1"/>
</linearGradient>
</defs>
</svg>
