<svg width="106" height="32" viewBox="0 0 106 32" fill="none" xmlns="http://www.w3.org/2000/svg">
<path d="M101 0H31V32H101C103.761 32 106 29.7614 106 27V5C106 2.23858 103.761 0 101 0Z" fill="#0F1418"/>
<path d="M5 0.5H30.5V31.5H5C2.51472 31.5 0.5 29.4853 0.5 27V5C0.5 2.51472 2.51472 0.5 5 0.5Z" fill="white" stroke="#151A1E"/>
<path d="M4.001 21.2506H4.961V17.5605L6.2945 20.7152C6.459 21.1084 6.684 21.2475 7.1255 21.2475C7.567 21.2475 7.783 21.1084 7.9475 20.7152L9.281 17.6412V21.2506H10.241V17.4704C10.241 17.1074 10.1025 16.9313 9.8165 16.8407C9.133 16.6167 8.674 16.81 8.4665 17.2948L7.099 20.5032L5.7745 17.2948C5.5755 16.8105 5.1085 16.6167 4.4245 16.8407C4.1385 16.9313 4 17.1068 4 17.4698V21.2501H4.001V21.2506ZM10.7205 18.2506H11.6805V20.3626C11.673 20.4667 11.7125 20.7433 12.1755 20.7506C12.4115 20.7547 13.586 20.7506 13.6005 20.7506V18.2506H14.5605C14.5645 18.2506 14.5605 21.3589 14.5605 21.3719C14.5655 22.1386 13.6465 22.2376 13.224 22.2506H10.721V21.7506C10.726 21.7506 13.1145 21.7511 13.1215 21.7506C13.6655 21.6907 13.601 21.3787 13.601 21.2839V21.2506H12.095C11.26 21.2428 10.7275 20.8594 10.7215 20.4225C10.7205 20.3818 10.7395 18.2693 10.7205 18.2506Z" fill="url(#paint0_linear_14_39)"/>
<path d="M15.0406 21.2505H17.4441C17.7591 21.2505 18.0651 21.1818 18.3081 21.063C18.7131 20.8693 18.8801 20.6073 18.8801 20.263V19.5505C18.8801 18.7818 17.9651 18.7505 17.4401 18.7505H16.4801C16.1026 18.7505 16.0451 18.513 16.0001 18.2505V17.7505C16.0451 17.5505 16.1291 17.2818 16.4616 17.2505C16.8481 17.2505 18.8796 17.2505 18.8796 17.2505V16.7505H16.5966C16.2191 16.7505 15.0396 16.7974 15.0396 17.7505V18.3688C15.0396 18.8063 15.4086 19.1625 16.2096 19.25C16.2996 19.2563 16.3896 19.2625 16.4791 19.2625C16.4791 19.2625 17.4121 19.2438 17.4391 19.25C17.9791 19.25 17.9191 19.6875 17.9191 19.75V20.25C17.9191 20.3188 17.9041 20.75 17.4336 20.75C17.3976 20.75 15.0391 20.75 15.0391 20.75V21.2505H15.0406ZM24.1601 20.2292C24.1601 20.8328 24.4876 21.1714 25.3561 21.2391C25.4371 21.2448 25.5186 21.25 25.6001 21.25H28.0001V20.75H25.7826C25.2871 20.75 25.1201 20.5333 25.1201 20.2234V16.75H24.1601V20.2292ZM19.3521 20.2505V17.7505C19.3521 17.2193 19.6021 16.8526 20.3101 16.7505H20.6461H22.3696H22.6321C23.3401 16.8526 23.6721 17.2187 23.6721 17.7505V20.2411C23.6721 20.6719 23.5646 20.9031 23.2141 21.0531L23.9581 21.75H22.8781L22.3431 21.25H21.7146L20.6466 21.2562C20.4921 21.2562 20.3291 21.2339 20.1501 21.1828C19.6131 21.0302 19.3521 20.7365 19.3521 20.2505ZM20.3121 20.2505C20.3611 20.4938 20.5486 20.7505 20.8821 20.7505H21.8141L21.2801 20.2505H22.3676L22.6271 20.5016C22.6271 20.5016 22.7201 20.4224 22.7201 20.2505C22.7201 20.0786 22.7121 17.7505 22.7121 17.7505C22.6631 17.5245 22.4431 17.2505 22.1181 17.2505H20.8826C20.5081 17.2505 20.3126 17.5359 20.3126 17.8016L20.3121 20.2505Z" fill="url(#paint1_linear_14_39)"/>
<path d="M27.0995 16.2234C26.584 16.2088 26.1905 16.2588 25.854 16.4062C25.7585 16.4484 25.606 16.4494 25.59 16.5744C25.6425 16.6317 25.6505 16.7177 25.6925 16.788C25.7725 16.9234 25.9085 17.1052 26.0295 17.2C26.162 17.3041 26.2985 17.4156 26.44 17.5057C26.692 17.6656 26.9735 17.7573 27.2165 17.9177C27.3595 18.0119 27.5015 18.1317 27.6415 18.238C27.7105 18.2911 27.7565 18.3729 27.8465 18.4062C27.8465 18.401 27.8465 18.3963 27.8465 18.3911C27.7995 18.3286 27.787 18.2427 27.744 18.177C27.6805 18.1109 27.617 18.0448 27.5535 17.9786C27.3675 17.7213 27.1305 17.4948 26.8795 17.3073C26.679 17.1573 26.2305 16.9547 26.1465 16.7119C26.1415 16.7067 26.137 16.702 26.1315 16.6963C26.2735 16.6797 26.44 16.626 26.571 16.5895C26.7915 16.5281 26.988 16.5442 27.2155 16.4828C27.318 16.452 27.4205 16.4218 27.523 16.3911C27.523 16.3708 27.523 16.3505 27.523 16.3302C27.408 16.2073 27.3255 16.0448 27.2005 15.9333C26.872 15.6422 26.514 15.3515 26.1455 15.1088C25.941 14.9744 25.688 14.8869 25.4715 14.7729C25.3985 14.7343 25.2705 14.7145 25.2225 14.651C25.1085 14.5 25.047 14.3078 24.959 14.1323C24.775 13.7635 24.594 13.3604 24.4315 12.9724C24.32 12.7078 24.2475 12.4463 24.109 12.2088C23.4435 11.0692 22.727 10.3812 21.618 9.70517C21.382 9.56142 21.0975 9.50465 20.797 9.43017C20.6355 9.42028 20.4745 9.40986 20.313 9.39944C20.2145 9.35621 20.1125 9.23121 20.0195 9.17028C19.652 8.92809 18.709 8.40205 18.437 9.09371C18.265 9.53017 18.694 9.95621 18.8475 10.1776C18.955 10.3328 19.093 10.5067 19.17 10.6817C19.2205 10.7963 19.2295 10.9114 19.2725 11.0328C19.379 11.3317 19.5475 11.6724 19.6855 11.9489C19.755 12.089 19.832 12.2359 19.92 12.3609C19.974 12.4375 20.0665 12.4713 20.0815 12.5901C19.991 12.7218 19.986 12.9265 19.935 13.0942C19.706 13.8468 19.7925 14.7817 20.1255 15.338C20.2275 15.5088 20.4685 15.8755 20.7995 15.7349C21.089 15.6119 21.0245 15.2312 21.107 14.8953C21.1255 14.8192 21.114 14.7635 21.151 14.7125C21.151 14.7177 21.151 14.7224 21.151 14.7281C21.239 14.9109 21.3265 15.0948 21.415 15.2776C21.6105 15.6052 21.957 15.9474 22.25 16.1786C22.402 16.2984 22.522 16.5057 22.719 16.5755C22.719 16.5703 22.719 16.5656 22.719 16.5599C22.714 16.5599 22.7095 16.5599 22.704 16.5599C22.666 16.4979 22.606 16.4724 22.5575 16.4224C22.443 16.3052 22.315 16.1599 22.2205 16.0255C21.9535 15.6479 21.7175 15.2343 21.5025 14.8041C21.4 14.5984 21.3105 14.3724 21.224 14.163C21.1905 14.0823 21.191 13.9604 21.1215 13.9187C21.0265 14.0718 20.8875 14.1958 20.814 14.3765C20.697 14.6656 20.6815 15.0187 20.6385 15.3838C20.6125 15.3932 20.624 15.3869 20.609 15.3989C20.405 15.3474 20.333 15.1291 20.257 14.9411C20.065 14.4661 20.0295 13.7015 20.1985 13.1552C20.242 13.0135 20.4395 12.5682 20.36 12.4375C20.322 12.3067 20.196 12.2312 20.126 12.1317C20.0385 12.0088 19.952 11.8463 19.8915 11.7041C19.7345 11.3338 19.5855 10.9031 19.42 10.5286C19.341 10.3494 19.2075 10.1687 19.0975 10.0099C18.976 9.83382 18.8395 9.70413 18.7455 9.49111C18.712 9.41559 18.6665 9.29423 18.716 9.21611C18.732 9.1635 18.754 9.14163 18.804 9.12444C18.889 9.05569 19.1255 9.14684 19.2145 9.18538C19.4495 9.28694 19.6455 9.38382 19.8445 9.52132C19.94 9.58746 20.0365 9.71507 20.152 9.75048C20.196 9.75048 20.24 9.75048 20.284 9.75048C20.4905 9.79996 20.7215 9.76611 20.914 9.82705C21.255 9.93486 21.56 10.1026 21.837 10.2849C22.682 10.8406 23.3725 11.6312 23.845 12.575C23.921 12.727 23.954 12.8718 24.0205 13.0328C24.1555 13.3578 24.326 13.6922 24.46 14.0099C24.594 14.327 24.725 14.6468 24.9145 14.9109C25.0145 15.0494 25.3995 15.1239 25.574 15.201C25.6965 15.2552 25.8975 15.3109 26.0135 15.3838C26.2355 15.5234 26.4505 15.6895 26.658 15.8416C26.764 15.9182 27.0835 16.0854 27.0995 16.2234Z" fill="url(#paint2_linear_14_39)"/>
<path d="M20.549 10.4078C20.4415 10.4057 20.3655 10.4198 20.285 10.4385C20.285 10.4437 20.285 10.4484 20.285 10.4542C20.29 10.4542 20.2945 10.4542 20.3 10.4542C20.3515 10.5635 20.4415 10.6349 20.505 10.7292C20.554 10.8359 20.6025 10.9427 20.6515 11.0495C20.6565 11.0443 20.661 11.0396 20.666 11.0344C20.7565 10.9677 20.7985 10.8614 20.798 10.6984C20.7615 10.6583 20.756 10.6083 20.7245 10.5609C20.6825 10.4969 20.6015 10.4609 20.549 10.4078Z" fill="#00796B"/>
<path d="M41.1243 20V9.5H43.1343L47.6043 16.91H46.5393L50.9343 9.5H52.9293L52.9593 20H50.6793L50.6643 12.995H51.0843L47.5743 18.89H46.4793L42.8943 12.995H43.4043V20H41.1243ZM56.4854 23.03C56.0654 23.03 55.6504 22.965 55.2404 22.835C54.8304 22.705 54.4954 22.525 54.2354 22.295L55.0904 20.63C55.2704 20.79 55.4754 20.915 55.7054 21.005C55.9454 21.095 56.1804 21.14 56.4104 21.14C56.7404 21.14 57.0004 21.06 57.1904 20.9C57.3904 20.75 57.5704 20.495 57.7304 20.135L58.1504 19.145L58.3304 18.89L61.2254 11.93H63.4754L59.8304 20.495C59.5704 21.145 59.2704 21.655 58.9304 22.025C58.6004 22.395 58.2304 22.655 57.8204 22.805C57.4204 22.955 56.9754 23.03 56.4854 23.03ZM57.8654 20.315L54.2654 11.93H56.6804L59.4704 18.68L57.8654 20.315ZM68.1813 20.18C67.3413 20.18 66.5363 20.07 65.7663 19.85C64.9963 19.62 64.3763 19.325 63.9063 18.965L64.7313 17.135C65.1813 17.455 65.7113 17.72 66.3213 17.93C66.9413 18.13 67.5663 18.23 68.1963 18.23C68.6763 18.23 69.0613 18.185 69.3513 18.095C69.6513 17.995 69.8713 17.86 70.0113 17.69C70.1513 17.52 70.2213 17.325 70.2213 17.105C70.2213 16.825 70.1113 16.605 69.8913 16.445C69.6713 16.275 69.3813 16.14 69.0213 16.04C68.6613 15.93 68.2613 15.83 67.8213 15.74C67.3913 15.64 66.9563 15.52 66.5163 15.38C66.0863 15.24 65.6913 15.06 65.3313 14.84C64.9713 14.62 64.6763 14.33 64.4463 13.97C64.2263 13.61 64.1163 13.15 64.1163 12.59C64.1163 11.99 64.2763 11.445 64.5963 10.955C64.9263 10.455 65.4163 10.06 66.0663 9.77C66.7263 9.47 67.5513 9.32 68.5413 9.32C69.2013 9.32 69.8513 9.4 70.4913 9.56C71.1313 9.71 71.6963 9.94 72.1863 10.25L71.4363 12.095C70.9463 11.815 70.4563 11.61 69.9663 11.48C69.4763 11.34 68.9963 11.27 68.5263 11.27C68.0563 11.27 67.6713 11.325 67.3713 11.435C67.0713 11.545 66.8563 11.69 66.7263 11.87C66.5963 12.04 66.5313 12.24 66.5313 12.47C66.5313 12.74 66.6413 12.96 66.8613 13.13C67.0813 13.29 67.3713 13.42 67.7313 13.52C68.0913 13.62 68.4863 13.72 68.9163 13.82C69.3563 13.92 69.7913 14.035 70.2213 14.165C70.6613 14.295 71.0613 14.47 71.4213 14.69C71.7813 14.91 72.0713 15.2 72.2913 15.56C72.5213 15.92 72.6363 16.375 72.6363 16.925C72.6363 17.515 72.4713 18.055 72.1413 18.545C71.8113 19.035 71.3163 19.43 70.6563 19.73C70.0063 20.03 69.1813 20.18 68.1813 20.18ZM79.5618 20.18C78.7418 20.18 77.9768 20.045 77.2668 19.775C76.5668 19.505 75.9568 19.125 75.4368 18.635C74.9268 18.145 74.5268 17.57 74.2368 16.91C73.9568 16.25 73.8168 15.53 73.8168 14.75C73.8168 13.97 73.9568 13.25 74.2368 12.59C74.5268 11.93 74.9318 11.355 75.4518 10.865C75.9718 10.375 76.5818 9.995 77.2818 9.725C77.9818 9.455 78.7418 9.32 79.5618 9.32C80.3918 9.32 81.1518 9.455 81.8418 9.725C82.5418 9.995 83.1468 10.375 83.6568 10.865C84.1768 11.345 84.5818 11.915 84.8718 12.575C85.1618 13.235 85.3068 13.96 85.3068 14.75C85.3068 15.53 85.1618 16.255 84.8718 16.925C84.5818 17.585 84.1768 18.16 83.6568 18.65C83.1468 19.13 82.5418 19.505 81.8418 19.775C81.1518 20.045 80.3918 20.18 79.5618 20.18ZM82.9968 22.415C82.5868 22.415 82.1968 22.37 81.8268 22.28C81.4668 22.19 81.1068 22.045 80.7468 21.845C80.3968 21.645 80.0268 21.375 79.6368 21.035C79.2568 20.695 78.8418 20.275 78.3918 19.775L80.9418 19.13C81.2118 19.5 81.4618 19.795 81.6918 20.015C81.9218 20.235 82.1418 20.39 82.3518 20.48C82.5718 20.57 82.8018 20.615 83.0418 20.615C83.6818 20.615 84.2518 20.355 84.7518 19.835L85.8318 21.125C85.1218 21.985 84.1768 22.415 82.9968 22.415ZM79.5618 18.11C80.0318 18.11 80.4618 18.03 80.8518 17.87C81.2518 17.71 81.6018 17.48 81.9018 17.18C82.2018 16.88 82.4318 16.525 82.5918 16.115C82.7618 15.695 82.8468 15.24 82.8468 14.75C82.8468 14.25 82.7618 13.795 82.5918 13.385C82.4318 12.975 82.2018 12.62 81.9018 12.32C81.6018 12.02 81.2518 11.79 80.8518 11.63C80.4618 11.47 80.0318 11.39 79.5618 11.39C79.0918 11.39 78.6568 11.47 78.2568 11.63C77.8568 11.79 77.5068 12.02 77.2068 12.32C76.9168 12.62 76.6868 12.975 76.5168 13.385C76.3568 13.795 76.2768 14.25 76.2768 14.75C76.2768 15.24 76.3568 15.695 76.5168 16.115C76.6868 16.525 76.9168 16.88 77.2068 17.18C77.5068 17.48 77.8568 17.71 78.2568 17.87C78.6568 18.03 79.0918 18.11 79.5618 18.11ZM87.313 20V9.5H89.743V18.02H95.008V20H87.313Z" fill="white"/>
<path d="M101 0H5C2.23858 0 0 2.23858 0 5V27C0 29.7614 2.23858 32 5 32H101C103.761 32 106 29.7614 106 27V5C106 2.23858 103.761 0 101 0Z" fill="url(#paint3_linear_14_39)"/>
<defs>
<linearGradient id="paint0_linear_14_39" x1="8.9" y1="16.1438" x2="9.59428" y2="22.2121" gradientUnits="userSpaceOnUse">
<stop stop-color="#058F92"/>
<stop offset="0.5" stop-color="#038489"/>
<stop offset="1" stop-color="#026D71"/>
</linearGradient>
<linearGradient id="paint1_linear_14_39" x1="21.1121" y1="16.3562" x2="21.5875" y2="21.3387" gradientUnits="userSpaceOnUse">
<stop stop-color="#FF9C0F"/>
<stop offset="0.813" stop-color="#D67E00"/>
</linearGradient>
<linearGradient id="paint2_linear_14_39" x1="21.5145" y1="9.10205" x2="24.3769" y2="16.8587" gradientUnits="userSpaceOnUse">
<stop stop-color="#058F92"/>
<stop offset="0.5" stop-color="#038489"/>
<stop offset="1" stop-color="#026D71"/>
</linearGradient>
<linearGradient id="paint3_linear_14_39" x1="0" y1="0" x2="0" y2="32" gradientUnits="userSpaceOnUse">
<stop stop-color="#BBBBBB" stop-opacity="0.1"/>
<stop offset="1" stop-opacity="0.1"/>
</linearGradient>
</defs>
</svg>
