<svg width="134" height="32" viewBox="0 0 134 32" fill="none" xmlns="http://www.w3.org/2000/svg">
<path d="M129 0H31V32H129C131.761 32 134 29.7614 134 27V5C134 2.23858 131.761 0 129 0Z" fill="#0F1418"/>
<path d="M31 0H5C2.23858 0 0 2.23858 0 5V27C0 29.7614 2.23858 32 5 32H31V0Z" fill="#0872C4"/>
<path fill-rule="evenodd" clip-rule="evenodd" d="M8.37293 7.02991C7.9327 7.13429 7.61052 7.52524 7.49567 8.0944C7.48028 8.17054 7.25663 9.19389 6.99864 10.3685C6.74066 11.5432 6.36751 13.2428 6.16936 14.1455C5.50061 17.1925 4.9411 19.7317 4.48307 21.7985C4.01452 23.9125 3.94618 24.3454 4.03149 24.6595C4.09315 24.8866 4.34516 25.1563 4.58052 25.2471C4.75668 25.3151 5.2043 25.3184 14.1979 25.3184H23.6306L23.8113 25.2348C24.2099 25.0504 24.3688 24.7732 24.5442 23.956C24.5981 23.7047 24.8364 22.6181 25.0737 21.5414C25.3109 20.4646 25.6671 18.8451 25.8652 17.9423C26.0632 17.0396 26.4192 15.42 26.6562 14.3433C27.4533 10.7211 27.7992 9.14513 27.9003 8.6746C27.9556 8.41725 28.0005 8.09689 28 7.9627C27.9985 7.55624 27.8108 7.25994 27.4472 7.08995L27.2692 7.00678L17.8958 7.00061C12.4786 6.99705 8.45938 7.00943 8.37293 7.02991ZM8.37293 7.02991C7.9327 7.13429 7.61052 7.52524 7.49567 8.0944C7.48028 8.17054 7.25663 9.19389 6.99864 10.3685C6.74066 11.5432 6.36751 13.2428 6.16936 14.1455C5.50061 17.1925 4.9411 19.7317 4.48307 21.7985C4.01452 23.9125 3.94618 24.3454 4.03149 24.6595C4.09315 24.8866 4.34516 25.1563 4.58052 25.2471C4.75668 25.3151 5.2043 25.3184 14.1979 25.3184H23.6306L23.8113 25.2348C24.2099 25.0504 24.3688 24.7732 24.5442 23.956C24.5981 23.7047 24.8364 22.6181 25.0737 21.5414C25.3109 20.4646 25.6671 18.8451 25.8652 17.9423C26.0632 17.0396 26.4192 15.42 26.6562 14.3433C27.4533 10.7211 27.7992 9.14513 27.9003 8.6746C27.9556 8.41725 28.0005 8.09689 28 7.9627C27.9985 7.55624 27.8108 7.25994 27.4472 7.08995L27.2692 7.00678L17.8958 7.00061C12.4786 6.99705 8.45938 7.00943 8.37293 7.02991ZM12.9269 8.94536C13.1918 9.06868 13.5111 9.37566 14.5087 10.4661C14.936 10.9331 15.5792 11.6361 15.9382 12.0284C19.0771 15.4583 19.0044 15.3662 19.0021 15.9055C19.0012 16.1151 18.9792 16.2237 18.9114 16.3522C18.7089 16.7364 18.757 16.6981 15.3449 19.188C14.8337 19.561 14.104 20.095 13.7233 20.3746C10.3944 22.82 9.99309 23.1047 9.73716 23.2021C9.47139 23.3031 9.1307 23.3046 8.91259 23.2056C8.20702 22.8851 8.05459 22.0491 8.59053 21.4387C8.75822 21.2477 8.97883 21.0813 11.6272 19.1488C12.1384 18.7758 12.8681 18.2419 13.2487 17.9624C13.6294 17.683 14.3057 17.1879 14.7516 16.8623C15.6889 16.1779 15.7687 16.114 15.8887 15.9514C16.0003 15.8002 16.0046 15.5794 15.8998 15.374C15.857 15.2901 15.5159 14.8859 15.1418 14.4758C12.2742 11.3326 11.6753 10.6606 11.5679 10.4654C11.4621 10.2732 11.4492 10.2134 11.4497 9.9137C11.4501 9.64571 11.4674 9.54545 11.5352 9.41933C11.8088 8.91032 12.4111 8.70525 12.9269 8.94536ZM20.4644 20.8603C20.9063 21.0641 21.1151 21.336 21.148 21.7506C21.1873 22.2447 20.9985 22.5769 20.5479 22.807L20.2768 22.9454H17.8801H15.4833L15.2877 22.8552C15.0077 22.7261 14.8475 22.5926 14.7281 22.3888C14.6048 22.1785 14.561 21.8066 14.6297 21.5529C14.7243 21.2032 15.1052 20.8734 15.5085 20.7921C15.6034 20.7729 16.7133 20.7602 17.9749 20.7637L20.2688 20.7702L20.4644 20.8603Z" fill="white"/>
<path d="M39.3998 20V9.5H43.9448C44.8848 9.5 45.6948 9.655 46.3748 9.965C47.0548 10.265 47.5798 10.7 47.9498 11.27C48.3198 11.84 48.5048 12.52 48.5048 13.31C48.5048 14.09 48.3198 14.765 47.9498 15.335C47.5798 15.905 47.0548 16.345 46.3748 16.655C45.6948 16.955 44.8848 17.105 43.9448 17.105H40.7498L41.8298 16.01V20H39.3998ZM41.8298 16.28L40.7498 15.125H43.8098C44.5598 15.125 45.1198 14.965 45.4898 14.645C45.8598 14.325 46.0448 13.88 46.0448 13.31C46.0448 12.73 45.8598 12.28 45.4898 11.96C45.1198 11.64 44.5598 11.48 43.8098 11.48H40.7498L41.8298 10.325V16.28ZM54.08 20.12C53.22 20.12 52.455 19.94 51.785 19.58C51.125 19.22 50.6 18.73 50.21 18.11C49.83 17.48 49.64 16.765 49.64 15.965C49.64 15.155 49.83 14.44 50.21 13.82C50.6 13.19 51.125 12.7 51.785 12.35C52.455 11.99 53.22 11.81 54.08 11.81C54.93 11.81 55.69 11.99 56.36 12.35C57.03 12.7 57.555 13.185 57.935 13.805C58.315 14.425 58.505 15.145 58.505 15.965C58.505 16.765 58.315 17.48 57.935 18.11C57.555 18.73 57.03 19.22 56.36 19.58C55.69 19.94 54.93 20.12 54.08 20.12ZM54.08 18.2C54.47 18.2 54.82 18.11 55.13 17.93C55.44 17.75 55.685 17.495 55.865 17.165C56.045 16.825 56.135 16.425 56.135 15.965C56.135 15.495 56.045 15.095 55.865 14.765C55.685 14.435 55.44 14.18 55.13 14C54.82 13.82 54.47 13.73 54.08 13.73C53.69 13.73 53.34 13.82 53.03 14C52.72 14.18 52.47 14.435 52.28 14.765C52.1 15.095 52.01 15.495 52.01 15.965C52.01 16.425 52.1 16.825 52.28 17.165C52.47 17.495 52.72 17.75 53.03 17.93C53.34 18.11 53.69 18.2 54.08 18.2ZM61.8744 20L58.9644 11.93H61.1694L63.5844 18.875H62.5344L65.0544 11.93H67.0344L69.4794 18.875H68.4294L70.9194 11.93H72.9894L70.0644 20H67.7994L65.6544 14.045H66.3444L64.1244 20H61.8744ZM78.0425 20.12C77.1225 20.12 76.3125 19.94 75.6125 19.58C74.9225 19.22 74.3875 18.73 74.0075 18.11C73.6275 17.48 73.4375 16.765 73.4375 15.965C73.4375 15.155 73.6225 14.44 73.9925 13.82C74.3725 13.19 74.8875 12.7 75.5375 12.35C76.1875 11.99 76.9225 11.81 77.7425 11.81C78.5325 11.81 79.2425 11.98 79.8725 12.32C80.5125 12.65 81.0175 13.13 81.3875 13.76C81.7575 14.38 81.9425 15.125 81.9425 15.995C81.9425 16.085 81.9375 16.19 81.9275 16.31C81.9175 16.42 81.9075 16.525 81.8975 16.625H75.3425V15.26H80.6675L79.7675 15.665C79.7675 15.245 79.6825 14.88 79.5125 14.57C79.3425 14.26 79.1075 14.02 78.8075 13.85C78.5075 13.67 78.1575 13.58 77.7575 13.58C77.3575 13.58 77.0025 13.67 76.6925 13.85C76.3925 14.02 76.1575 14.265 75.9875 14.585C75.8175 14.895 75.7325 15.265 75.7325 15.695V16.055C75.7325 16.495 75.8275 16.885 76.0175 17.225C76.2175 17.555 76.4925 17.81 76.8425 17.99C77.2025 18.16 77.6225 18.245 78.1025 18.245C78.5325 18.245 78.9075 18.18 79.2275 18.05C79.5575 17.92 79.8575 17.725 80.1275 17.465L81.3725 18.815C81.0025 19.235 80.5375 19.56 79.9775 19.79C79.4175 20.01 78.7725 20.12 78.0425 20.12ZM83.6804 20V11.93H85.9154V14.21L85.6004 13.55C85.8404 12.98 86.2254 12.55 86.7554 12.26C87.2854 11.96 87.9304 11.81 88.6904 11.81V13.97C88.5904 13.96 88.5004 13.955 88.4204 13.955C88.3404 13.945 88.2554 13.94 88.1654 13.94C87.5254 13.94 87.0054 14.125 86.6054 14.495C86.2154 14.855 86.0204 15.42 86.0204 16.19V20H83.6804ZM93.0354 20.12C92.3454 20.12 91.6804 20.04 91.0404 19.88C90.4104 19.71 89.9104 19.5 89.5404 19.25L90.3204 17.57C90.6904 17.8 91.1254 17.99 91.6254 18.14C92.1354 18.28 92.6354 18.35 93.1254 18.35C93.6654 18.35 94.0454 18.285 94.2654 18.155C94.4954 18.025 94.6104 17.845 94.6104 17.615C94.6104 17.425 94.5204 17.285 94.3404 17.195C94.1704 17.095 93.9404 17.02 93.6504 16.97C93.3604 16.92 93.0404 16.87 92.6904 16.82C92.3504 16.77 92.0054 16.705 91.6554 16.625C91.3054 16.535 90.9854 16.405 90.6954 16.235C90.4054 16.065 90.1704 15.835 89.9904 15.545C89.8204 15.255 89.7354 14.88 89.7354 14.42C89.7354 13.91 89.8804 13.46 90.1704 13.07C90.4704 12.68 90.9004 12.375 91.4604 12.155C92.0204 11.925 92.6904 11.81 93.4704 11.81C94.0204 11.81 94.5804 11.87 95.1504 11.99C95.7204 12.11 96.1954 12.285 96.5754 12.515L95.7954 14.18C95.4054 13.95 95.0104 13.795 94.6104 13.715C94.2204 13.625 93.8404 13.58 93.4704 13.58C92.9504 13.58 92.5704 13.65 92.3304 13.79C92.0904 13.93 91.9704 14.11 91.9704 14.33C91.9704 14.53 92.0554 14.68 92.2254 14.78C92.4054 14.88 92.6404 14.96 92.9304 15.02C93.2204 15.08 93.5354 15.135 93.8754 15.185C94.2254 15.225 94.5754 15.29 94.9254 15.38C95.2754 15.47 95.5904 15.6 95.8704 15.77C96.1604 15.93 96.3954 16.155 96.5754 16.445C96.7554 16.725 96.8454 17.095 96.8454 17.555C96.8454 18.055 96.6954 18.5 96.3954 18.89C96.0954 19.27 95.6604 19.57 95.0904 19.79C94.5304 20.01 93.8454 20.12 93.0354 20.12ZM103.374 11.81C104.014 11.81 104.584 11.94 105.084 12.2C105.594 12.45 105.994 12.84 106.284 13.37C106.574 13.89 106.719 14.56 106.719 15.38V20H104.379V15.74C104.379 15.09 104.234 14.61 103.944 14.3C103.664 13.99 103.264 13.835 102.744 13.835C102.374 13.835 102.039 13.915 101.739 14.075C101.449 14.225 101.219 14.46 101.049 14.78C100.889 15.1 100.809 15.51 100.809 16.01V20H98.4691V8.87H100.809V14.165L100.284 13.49C100.574 12.95 100.989 12.535 101.529 12.245C102.069 11.955 102.684 11.81 103.374 11.81ZM113.084 20.12C112.164 20.12 111.354 19.94 110.654 19.58C109.964 19.22 109.429 18.73 109.049 18.11C108.669 17.48 108.479 16.765 108.479 15.965C108.479 15.155 108.664 14.44 109.034 13.82C109.414 13.19 109.929 12.7 110.579 12.35C111.229 11.99 111.964 11.81 112.784 11.81C113.574 11.81 114.284 11.98 114.914 12.32C115.554 12.65 116.059 13.13 116.429 13.76C116.799 14.38 116.984 15.125 116.984 15.995C116.984 16.085 116.979 16.19 116.969 16.31C116.959 16.42 116.949 16.525 116.939 16.625H110.384V15.26H115.709L114.809 15.665C114.809 15.245 114.724 14.88 114.554 14.57C114.384 14.26 114.149 14.02 113.849 13.85C113.549 13.67 113.199 13.58 112.799 13.58C112.399 13.58 112.044 13.67 111.734 13.85C111.434 14.02 111.199 14.265 111.029 14.585C110.859 14.895 110.774 15.265 110.774 15.695V16.055C110.774 16.495 110.869 16.885 111.059 17.225C111.259 17.555 111.534 17.81 111.884 17.99C112.244 18.16 112.664 18.245 113.144 18.245C113.574 18.245 113.949 18.18 114.269 18.05C114.599 17.92 114.899 17.725 115.169 17.465L116.414 18.815C116.044 19.235 115.579 19.56 115.019 19.79C114.459 20.01 113.814 20.12 113.084 20.12ZM118.722 20V8.87H121.062V20H118.722ZM123.413 20V8.87H125.753V20H123.413Z" fill="white"/>
<path d="M129 0H5C2.23858 0 0 2.23858 0 5V27C0 29.7614 2.23858 32 5 32H129C131.761 32 134 29.7614 134 27V5C134 2.23858 131.761 0 129 0Z" fill="url(#paint0_linear_14_1547)"/>
<defs>
<linearGradient id="paint0_linear_14_1547" x1="0" y1="0" x2="0" y2="32" gradientUnits="userSpaceOnUse">
<stop stop-color="#BBBBBB" stop-opacity="0.1"/>
<stop offset="1" stop-opacity="0.1"/>
</linearGradient>
</defs>
</svg>
