<svg width="107" height="32" viewBox="0 0 107 32" fill="none" xmlns="http://www.w3.org/2000/svg">
<path d="M102 0H31V32H102C104.761 32 107 29.7614 107 27V5C107 2.23858 104.761 0 102 0Z" fill="#0F1418"/>
<path d="M31 0H5C2.23858 0 0 2.23858 0 5V27C0 29.7614 2.23858 32 5 32H31V0Z" fill="#366E9C"/>
<path d="M27.5592 13.0251C27.1467 11.3698 26.3646 10.1216 24.6986 10.1216H22.5505V12.6608C22.5505 14.6322 20.8791 16.2928 18.972 16.2928H13.2508C11.6865 16.2928 10.3902 17.6321 10.3902 19.2017V24.655C10.3902 26.2086 11.7401 27.1192 13.2508 27.5639C15.0614 28.0942 16.8024 28.1906 18.972 27.5639C20.413 27.146 21.8326 26.305 21.8326 24.655V22.4748H16.1168V21.7462H24.6986C26.3646 21.7462 26.9807 20.5838 27.5592 18.8427C28.1592 17.0482 28.1324 15.3232 27.5592 13.0251ZM19.3309 23.9265C19.9256 23.9265 20.4077 24.414 20.4077 25.014C20.4077 25.6193 19.9256 26.1068 19.3309 26.1068C18.7417 26.1068 18.2542 25.6139 18.2542 25.014C18.2595 24.4086 18.7417 23.9265 19.3309 23.9265ZM12.9883 15.575H18.7095C20.3005 15.575 21.5701 14.2625 21.5701 12.6662V7.20742C21.5701 5.65391 20.263 4.49144 18.7095 4.22895C16.7917 3.91289 14.7079 3.92896 12.9883 4.23431C10.5669 4.66287 10.1277 5.55748 10.1277 7.21278V9.39306H15.8543V10.1216H7.97953C6.31351 10.1216 4.85642 11.1234 4.40108 13.0251C3.8761 15.2054 3.85467 16.566 4.40108 18.8427C4.80821 20.5355 5.77782 21.7462 7.44383 21.7462H9.40984V19.132C9.40984 17.241 11.0437 15.575 12.9883 15.575ZM12.6294 7.93597C12.0347 7.93597 11.5526 7.44849 11.5526 6.84851C11.558 6.24317 12.0347 5.75569 12.6294 5.75569C13.2186 5.75569 13.7061 6.24853 13.7061 6.84851C13.7061 7.44849 13.224 7.93597 12.6294 7.93597Z" fill="white"/>
<path d="M41.1573 21V10.5H45.7023C46.6423 10.5 47.4523 10.655 48.1323 10.965C48.8123 11.265 49.3373 11.7 49.7073 12.27C50.0773 12.84 50.2623 13.52 50.2623 14.31C50.2623 15.09 50.0773 15.765 49.7073 16.335C49.3373 16.905 48.8123 17.345 48.1323 17.655C47.4523 17.955 46.6423 18.105 45.7023 18.105H42.5073L43.5873 17.01V21H41.1573ZM43.5873 17.28L42.5073 16.125H45.5673C46.3173 16.125 46.8773 15.965 47.2473 15.645C47.6173 15.325 47.8023 14.88 47.8023 14.31C47.8023 13.73 47.6173 13.28 47.2473 12.96C46.8773 12.64 46.3173 12.48 45.5673 12.48H42.5073L43.5873 11.325V17.28ZM53.1347 24.03C52.7147 24.03 52.2997 23.965 51.8897 23.835C51.4797 23.705 51.1447 23.525 50.8847 23.295L51.7397 21.63C51.9197 21.79 52.1247 21.915 52.3547 22.005C52.5947 22.095 52.8297 22.14 53.0597 22.14C53.3897 22.14 53.6497 22.06 53.8397 21.9C54.0397 21.75 54.2197 21.495 54.3797 21.135L54.7997 20.145L54.9797 19.89L57.8747 12.93H60.1247L56.4797 21.495C56.2197 22.145 55.9197 22.655 55.5797 23.025C55.2497 23.395 54.8797 23.655 54.4697 23.805C54.0697 23.955 53.6247 24.03 53.1347 24.03ZM54.5147 21.315L50.9147 12.93H53.3297L56.1197 19.68L54.5147 21.315ZM64.7793 21.12C63.8293 21.12 63.0893 20.88 62.5593 20.4C62.0293 19.91 61.7643 19.185 61.7643 18.225V11.145H64.1043V18.195C64.1043 18.535 64.1943 18.8 64.3743 18.99C64.5543 19.17 64.7993 19.26 65.1093 19.26C65.4793 19.26 65.7943 19.16 66.0543 18.96L66.6843 20.61C66.4443 20.78 66.1543 20.91 65.8143 21C65.4843 21.08 65.1393 21.12 64.7793 21.12ZM60.5193 14.91V13.11H66.1143V14.91H60.5193ZM73.0828 12.81C73.7228 12.81 74.2928 12.94 74.7928 13.2C75.3028 13.45 75.7028 13.84 75.9928 14.37C76.2828 14.89 76.4278 15.56 76.4278 16.38V21H74.0878V16.74C74.0878 16.09 73.9428 15.61 73.6528 15.3C73.3728 14.99 72.9728 14.835 72.4528 14.835C72.0828 14.835 71.7478 14.915 71.4478 15.075C71.1578 15.225 70.9278 15.46 70.7578 15.78C70.5978 16.1 70.5178 16.51 70.5178 17.01V21H68.1778V9.87H70.5178V15.165L69.9928 14.49C70.2828 13.95 70.6978 13.535 71.2378 13.245C71.7778 12.955 72.3928 12.81 73.0828 12.81ZM82.6275 21.12C81.7675 21.12 81.0025 20.94 80.3325 20.58C79.6725 20.22 79.1475 19.73 78.7575 19.11C78.3775 18.48 78.1875 17.765 78.1875 16.965C78.1875 16.155 78.3775 15.44 78.7575 14.82C79.1475 14.19 79.6725 13.7 80.3325 13.35C81.0025 12.99 81.7675 12.81 82.6275 12.81C83.4775 12.81 84.2375 12.99 84.9075 13.35C85.5775 13.7 86.1025 14.185 86.4825 14.805C86.8625 15.425 87.0525 16.145 87.0525 16.965C87.0525 17.765 86.8625 18.48 86.4825 19.11C86.1025 19.73 85.5775 20.22 84.9075 20.58C84.2375 20.94 83.4775 21.12 82.6275 21.12ZM82.6275 19.2C83.0175 19.2 83.3675 19.11 83.6775 18.93C83.9875 18.75 84.2325 18.495 84.4125 18.165C84.5925 17.825 84.6825 17.425 84.6825 16.965C84.6825 16.495 84.5925 16.095 84.4125 15.765C84.2325 15.435 83.9875 15.18 83.6775 15C83.3675 14.82 83.0175 14.73 82.6275 14.73C82.2375 14.73 81.8875 14.82 81.5775 15C81.2675 15.18 81.0175 15.435 80.8275 15.765C80.6475 16.095 80.5575 16.495 80.5575 16.965C80.5575 17.425 80.6475 17.825 80.8275 18.165C81.0175 18.495 81.2675 18.75 81.5775 18.93C81.8875 19.11 82.2375 19.2 82.6275 19.2ZM93.7016 12.81C94.3416 12.81 94.9116 12.94 95.4116 13.2C95.9216 13.45 96.3216 13.84 96.6116 14.37C96.9016 14.89 97.0466 15.56 97.0466 16.38V21H94.7066V16.74C94.7066 16.09 94.5616 15.61 94.2716 15.3C93.9916 14.99 93.5916 14.835 93.0716 14.835C92.7016 14.835 92.3666 14.915 92.0666 15.075C91.7766 15.225 91.5466 15.46 91.3766 15.78C91.2166 16.1 91.1366 16.51 91.1366 17.01V21H88.7966V12.93H91.0316V15.165L90.6116 14.49C90.9016 13.95 91.3166 13.535 91.8566 13.245C92.3966 12.955 93.0116 12.81 93.7016 12.81Z" fill="white"/>
<path d="M102 0H5C2.23858 0 0 2.23858 0 5V27C0 29.7614 2.23858 32 5 32H102C104.761 32 107 29.7614 107 27V5C107 2.23858 104.761 0 102 0Z" fill="url(#paint0_linear_2_865)"/>
<defs>
<linearGradient id="paint0_linear_2_865" x1="0" y1="0" x2="0" y2="32" gradientUnits="userSpaceOnUse">
<stop stop-color="#BBBBBB" stop-opacity="0.1"/>
<stop offset="1" stop-opacity="0.1"/>
</linearGradient>
</defs>
</svg>
