<svg width="107" height="32" viewBox="0 0 107 32" fill="none" xmlns="http://www.w3.org/2000/svg">
<path d="M102 0H31V32H102C104.761 32 107 29.7614 107 27V5C107 2.23858 104.761 0 102 0Z" fill="#0F1418"/>
<path d="M5 0.5H30.5V31.5H5C2.51472 31.5 0.5 29.4853 0.5 27V5C0.5 2.51472 2.51472 0.5 5 0.5Z" fill="white" stroke="#1C2125"/>
<path d="M38.5307 21V12.48H35.1707V10.5H44.3207V12.48H40.9607V21H38.5307ZM50.183 21V19.425L50.033 19.08V16.26C50.033 15.76 49.878 15.37 49.568 15.09C49.268 14.81 48.803 14.67 48.173 14.67C47.743 14.67 47.318 14.74 46.898 14.88C46.488 15.01 46.138 15.19 45.848 15.42L45.008 13.785C45.448 13.475 45.978 13.235 46.598 13.065C47.218 12.895 47.848 12.81 48.488 12.81C49.718 12.81 50.673 13.1 51.353 13.68C52.033 14.26 52.373 15.165 52.373 16.395V21H50.183ZM47.723 21.12C47.093 21.12 46.553 21.015 46.103 20.805C45.653 20.585 45.308 20.29 45.068 19.92C44.828 19.55 44.708 19.135 44.708 18.675C44.708 18.195 44.823 17.775 45.053 17.415C45.293 17.055 45.668 16.775 46.178 16.575C46.688 16.365 47.353 16.26 48.173 16.26H50.318V17.625H48.428C47.878 17.625 47.498 17.715 47.288 17.895C47.088 18.075 46.988 18.3 46.988 18.57C46.988 18.87 47.103 19.11 47.333 19.29C47.573 19.46 47.898 19.545 48.308 19.545C48.698 19.545 49.048 19.455 49.358 19.275C49.668 19.085 49.893 18.81 50.033 18.45L50.393 19.53C50.223 20.05 49.913 20.445 49.463 20.715C49.013 20.985 48.433 21.12 47.723 21.12ZM54.6708 21V12.93H57.0108V21H54.6708ZM55.8408 11.805C55.4108 11.805 55.0608 11.68 54.7908 11.43C54.5208 11.18 54.3858 10.87 54.3858 10.5C54.3858 10.13 54.5208 9.82 54.7908 9.57C55.0608 9.32 55.4108 9.195 55.8408 9.195C56.2708 9.195 56.6208 9.315 56.8908 9.555C57.1608 9.785 57.2958 10.085 57.2958 10.455C57.2958 10.845 57.1608 11.17 56.8908 11.43C56.6308 11.68 56.2808 11.805 55.8408 11.805ZM59.3626 21V9.87H61.7026V21H59.3626ZM65.8993 21L62.9893 12.93H65.1943L67.6093 19.875H66.5593L69.0793 12.93H71.0593L73.5043 19.875H72.4543L74.9443 12.93H77.0143L74.0893 21H71.8243L69.6793 15.045H70.3693L68.1493 21H65.8993ZM78.2821 21V12.93H80.6221V21H78.2821ZM79.4521 11.805C79.0221 11.805 78.6721 11.68 78.4021 11.43C78.1321 11.18 77.9971 10.87 77.9971 10.5C77.9971 10.13 78.1321 9.82 78.4021 9.57C78.6721 9.32 79.0221 9.195 79.4521 9.195C79.8821 9.195 80.2321 9.315 80.5021 9.555C80.7721 9.785 80.9071 10.085 80.9071 10.455C80.9071 10.845 80.7721 11.17 80.5021 11.43C80.2421 11.68 79.8921 11.805 79.4521 11.805ZM87.8788 12.81C88.5188 12.81 89.0888 12.94 89.5888 13.2C90.0988 13.45 90.4988 13.84 90.7888 14.37C91.0788 14.89 91.2238 15.56 91.2238 16.38V21H88.8838V16.74C88.8838 16.09 88.7388 15.61 88.4488 15.3C88.1688 14.99 87.7688 14.835 87.2488 14.835C86.8788 14.835 86.5438 14.915 86.2438 15.075C85.9538 15.225 85.7238 15.46 85.5538 15.78C85.3938 16.1 85.3138 16.51 85.3138 17.01V21H82.9738V12.93H85.2088V15.165L84.7888 14.49C85.0788 13.95 85.4938 13.535 86.0338 13.245C86.5738 12.955 87.1888 12.81 87.8788 12.81ZM97.0485 21.12C96.2885 21.12 95.6035 20.95 94.9935 20.61C94.3835 20.26 93.8985 19.775 93.5385 19.155C93.1885 18.535 93.0135 17.805 93.0135 16.965C93.0135 16.115 93.1885 15.38 93.5385 14.76C93.8985 14.14 94.3835 13.66 94.9935 13.32C95.6035 12.98 96.2885 12.81 97.0485 12.81C97.7285 12.81 98.3235 12.96 98.8335 13.26C99.3435 13.56 99.7385 14.015 100.019 14.625C100.299 15.235 100.439 16.015 100.439 16.965C100.439 17.905 100.304 18.685 100.034 19.305C99.7635 19.915 99.3735 20.37 98.8635 20.67C98.3635 20.97 97.7585 21.12 97.0485 21.12ZM97.4535 19.2C97.8335 19.2 98.1785 19.11 98.4885 18.93C98.7985 18.75 99.0435 18.495 99.2235 18.165C99.4135 17.825 99.5085 17.425 99.5085 16.965C99.5085 16.495 99.4135 16.095 99.2235 15.765C99.0435 15.435 98.7985 15.18 98.4885 15C98.1785 14.82 97.8335 14.73 97.4535 14.73C97.0635 14.73 96.7135 14.82 96.4035 15C96.0935 15.18 95.8435 15.435 95.6535 15.765C95.4735 16.095 95.3835 16.495 95.3835 16.965C95.3835 17.425 95.4735 17.825 95.6535 18.165C95.8435 18.495 96.0935 18.75 96.4035 18.93C96.7135 19.11 97.0635 19.2 97.4535 19.2ZM99.5685 21V19.35L99.6135 16.95L99.4635 14.565V9.87H101.804V21H99.5685Z" fill="white"/>
<path d="M102 0H5C2.23858 0 0 2.23858 0 5V27C0 29.7614 2.23858 32 5 32H102C104.761 32 107 29.7614 107 27V5C107 2.23858 104.761 0 102 0Z" fill="url(#paint0_linear_3_4266)"/>
<path d="M8.71875 14.1313C9.62292 11.098 11.8833 9.5813 15.5 9.5813C20.925 9.5813 21.6031 12.9938 24.3156 13.5625C26.124 13.9417 27.7063 13.373 29.0625 11.8563C28.1583 14.8896 25.8979 16.4063 22.2812 16.4063C16.8563 16.4063 16.1781 12.9938 13.4656 12.425C11.6573 12.0459 10.075 12.6146 8.71875 14.1313ZM1.9375 20.9563C2.84167 17.923 5.10208 16.4063 8.71875 16.4063C14.1437 16.4063 14.8219 19.8188 17.5344 20.3875C19.3427 20.7667 20.925 20.198 22.2812 18.6813C21.3771 21.7146 19.1167 23.2313 15.5 23.2313C10.075 23.2313 9.39688 19.8188 6.68438 19.25C4.87604 18.8709 3.29375 19.4396 1.9375 20.9563Z" fill="#44A8B3"/>
<defs>
<linearGradient id="paint0_linear_3_4266" x1="0" y1="0" x2="0" y2="32" gradientUnits="userSpaceOnUse">
<stop stop-color="#BBBBBB" stop-opacity="0.1"/>
<stop offset="1" stop-opacity="0.1"/>
</linearGradient>
</defs>
</svg>
