<svg width="192" height="32" viewBox="0 0 192 32" fill="none" xmlns="http://www.w3.org/2000/svg">
<path d="M187 0H31V32H187C189.761 32 192 29.7614 192 27V5C192 2.23858 189.761 0 187 0Z" fill="#0F1418"/>
<path d="M31 0H5C2.23858 0 0 2.23858 0 5V27C0 29.7614 2.23858 32 5 32H31V0Z" fill="#0288D1"/>
<path d="M26.0627 8.9435V23.1588C26.0627 23.8591 25.6271 24.4821 24.971 24.7137L20.1075 26.9966L20.5487 21.0138V11.0885L20.1075 5.10571L24.971 7.38854C25.6271 7.62013 26.0627 8.24322 26.0627 8.9435Z" fill="white"/>
<path d="M6.76334 21.5078L20.5485 11.0884V5.76902C20.5485 5.10843 19.7313 4.79965 19.2941 5.29481L4.36913 18.9399C3.87287 19.3976 3.90099 20.19 4.42813 20.6118C4.42813 20.6118 5.1582 21.2911 5.42232 21.4797C5.82816 21.7692 6.36137 21.8023 6.76334 21.5078Z" fill="white"/>
<path d="M6.76334 10.5937L20.5485 21.0131V26.3325C20.5485 26.9931 19.7313 27.3019 19.2941 26.8067L4.36913 13.1616C3.87287 12.7039 3.90099 11.9116 4.42813 11.4897C4.42813 11.4897 5.1582 10.8104 5.42232 10.6218C5.82816 10.3323 6.36137 10.2992 6.76334 10.5937Z" fill="white"/>
<path d="M40.5369 21L36.0069 10.5H38.6319L42.5919 19.8H41.0469L45.0669 10.5H47.4819L42.9369 21H40.5369ZM48.5054 21V12.93H50.8454V21H48.5054ZM49.6754 11.805C49.2454 11.805 48.8954 11.68 48.6254 11.43C48.3554 11.18 48.2204 10.87 48.2204 10.5C48.2204 10.13 48.3554 9.82 48.6254 9.57C48.8954 9.32 49.2454 9.195 49.6754 9.195C50.1054 9.195 50.4554 9.315 50.7254 9.555C50.9954 9.785 51.1304 10.085 51.1304 10.455C51.1304 10.845 50.9954 11.17 50.7254 11.43C50.4654 11.68 50.1154 11.805 49.6754 11.805ZM55.9121 21.12C55.2221 21.12 54.5571 21.04 53.9171 20.88C53.2871 20.71 52.7871 20.5 52.4171 20.25L53.1971 18.57C53.5671 18.8 54.0021 18.99 54.5021 19.14C55.0121 19.28 55.5121 19.35 56.0021 19.35C56.5421 19.35 56.9221 19.285 57.1421 19.155C57.3721 19.025 57.4871 18.845 57.4871 18.615C57.4871 18.425 57.3971 18.285 57.2171 18.195C57.0471 18.095 56.8171 18.02 56.5271 17.97C56.2371 17.92 55.9171 17.87 55.5671 17.82C55.2271 17.77 54.8821 17.705 54.5321 17.625C54.1821 17.535 53.8621 17.405 53.5721 17.235C53.2821 17.065 53.0471 16.835 52.8671 16.545C52.6971 16.255 52.6121 15.88 52.6121 15.42C52.6121 14.91 52.7571 14.46 53.0471 14.07C53.3471 13.68 53.7771 13.375 54.3371 13.155C54.8971 12.925 55.5671 12.81 56.3471 12.81C56.8971 12.81 57.4571 12.87 58.0271 12.99C58.5971 13.11 59.0721 13.285 59.4521 13.515L58.6721 15.18C58.2821 14.95 57.8871 14.795 57.4871 14.715C57.0971 14.625 56.7171 14.58 56.3471 14.58C55.8271 14.58 55.4471 14.65 55.2071 14.79C54.9671 14.93 54.8471 15.11 54.8471 15.33C54.8471 15.53 54.9321 15.68 55.1021 15.78C55.2821 15.88 55.5171 15.96 55.8071 16.02C56.0971 16.08 56.4121 16.135 56.7521 16.185C57.1021 16.225 57.4521 16.29 57.8021 16.38C58.1521 16.47 58.4671 16.6 58.7471 16.77C59.0371 16.93 59.2721 17.155 59.4521 17.445C59.6321 17.725 59.7221 18.095 59.7221 18.555C59.7221 19.055 59.5721 19.5 59.2721 19.89C58.9721 20.27 58.5371 20.57 57.9671 20.79C57.4071 21.01 56.7221 21.12 55.9121 21.12ZM64.7509 21.12C64.0809 21.12 63.4809 20.99 62.9509 20.73C62.4309 20.47 62.0259 20.075 61.7359 19.545C61.4459 19.005 61.3009 18.32 61.3009 17.49V12.93H63.6409V17.145C63.6409 17.815 63.7809 18.31 64.0609 18.63C64.3509 18.94 64.7559 19.095 65.2759 19.095C65.6359 19.095 65.9559 19.02 66.2359 18.87C66.5159 18.71 66.7359 18.47 66.8959 18.15C67.0559 17.82 67.1359 17.41 67.1359 16.92V12.93H69.4759V21H67.2559V18.78L67.6609 19.425C67.3909 19.985 66.9909 20.41 66.4609 20.7C65.9409 20.98 65.3709 21.12 64.7509 21.12ZM76.7737 21V19.425L76.6237 19.08V16.26C76.6237 15.76 76.4687 15.37 76.1587 15.09C75.8587 14.81 75.3937 14.67 74.7637 14.67C74.3337 14.67 73.9087 14.74 73.4887 14.88C73.0787 15.01 72.7287 15.19 72.4387 15.42L71.5987 13.785C72.0387 13.475 72.5687 13.235 73.1887 13.065C73.8087 12.895 74.4387 12.81 75.0787 12.81C76.3087 12.81 77.2637 13.1 77.9437 13.68C78.6237 14.26 78.9637 15.165 78.9637 16.395V21H76.7737ZM74.3137 21.12C73.6837 21.12 73.1437 21.015 72.6937 20.805C72.2437 20.585 71.8987 20.29 71.6587 19.92C71.4187 19.55 71.2987 19.135 71.2987 18.675C71.2987 18.195 71.4137 17.775 71.6437 17.415C71.8837 17.055 72.2587 16.775 72.7687 16.575C73.2787 16.365 73.9437 16.26 74.7637 16.26H76.9087V17.625H75.0187C74.4687 17.625 74.0887 17.715 73.8787 17.895C73.6787 18.075 73.5787 18.3 73.5787 18.57C73.5787 18.87 73.6937 19.11 73.9237 19.29C74.1637 19.46 74.4887 19.545 74.8987 19.545C75.2887 19.545 75.6387 19.455 75.9487 19.275C76.2587 19.085 76.4837 18.81 76.6237 18.45L76.9837 19.53C76.8137 20.05 76.5037 20.445 76.0537 20.715C75.6037 20.985 75.0237 21.12 74.3137 21.12ZM81.2615 21V9.87H83.6015V21H81.2615ZM93.9963 21.18C93.1563 21.18 92.3513 21.07 91.5813 20.85C90.8113 20.62 90.1913 20.325 89.7213 19.965L90.5463 18.135C90.9963 18.455 91.5263 18.72 92.1363 18.93C92.7563 19.13 93.3813 19.23 94.0113 19.23C94.4913 19.23 94.8763 19.185 95.1663 19.095C95.4663 18.995 95.6863 18.86 95.8263 18.69C95.9663 18.52 96.0363 18.325 96.0363 18.105C96.0363 17.825 95.9263 17.605 95.7063 17.445C95.4863 17.275 95.1963 17.14 94.8363 17.04C94.4763 16.93 94.0763 16.83 93.6363 16.74C93.2063 16.64 92.7713 16.52 92.3313 16.38C91.9013 16.24 91.5063 16.06 91.1463 15.84C90.7863 15.62 90.4913 15.33 90.2613 14.97C90.0413 14.61 89.9313 14.15 89.9313 13.59C89.9313 12.99 90.0913 12.445 90.4113 11.955C90.7413 11.455 91.2313 11.06 91.8813 10.77C92.5413 10.47 93.3663 10.32 94.3563 10.32C95.0163 10.32 95.6663 10.4 96.3063 10.56C96.9463 10.71 97.5113 10.94 98.0013 11.25L97.2513 13.095C96.7613 12.815 96.2713 12.61 95.7813 12.48C95.2913 12.34 94.8113 12.27 94.3413 12.27C93.8713 12.27 93.4863 12.325 93.1863 12.435C92.8863 12.545 92.6713 12.69 92.5413 12.87C92.4113 13.04 92.3463 13.24 92.3463 13.47C92.3463 13.74 92.4563 13.96 92.6763 14.13C92.8963 14.29 93.1863 14.42 93.5463 14.52C93.9063 14.62 94.3013 14.72 94.7313 14.82C95.1713 14.92 95.6063 15.035 96.0363 15.165C96.4763 15.295 96.8763 15.47 97.2363 15.69C97.5963 15.91 97.8863 16.2 98.1063 16.56C98.3363 16.92 98.4513 17.375 98.4513 17.925C98.4513 18.515 98.2863 19.055 97.9563 19.545C97.6263 20.035 97.1313 20.43 96.4713 20.73C95.8213 21.03 94.9963 21.18 93.9963 21.18ZM103.427 21.12C102.477 21.12 101.737 20.88 101.207 20.4C100.677 19.91 100.412 19.185 100.412 18.225V11.145H102.752V18.195C102.752 18.535 102.842 18.8 103.022 18.99C103.202 19.17 103.447 19.26 103.757 19.26C104.127 19.26 104.442 19.16 104.702 18.96L105.332 20.61C105.092 20.78 104.802 20.91 104.462 21C104.132 21.08 103.787 21.12 103.427 21.12ZM99.1667 14.91V13.11H104.762V14.91H99.1667ZM110.23 21.12C109.56 21.12 108.96 20.99 108.43 20.73C107.91 20.47 107.505 20.075 107.215 19.545C106.925 19.005 106.78 18.32 106.78 17.49V12.93H109.12V17.145C109.12 17.815 109.26 18.31 109.54 18.63C109.83 18.94 110.235 19.095 110.755 19.095C111.115 19.095 111.435 19.02 111.715 18.87C111.995 18.71 112.215 18.47 112.375 18.15C112.535 17.82 112.615 17.41 112.615 16.92V12.93H114.955V21H112.735V18.78L113.14 19.425C112.87 19.985 112.47 20.41 111.94 20.7C111.42 20.98 110.85 21.12 110.23 21.12ZM120.768 21.12C120.008 21.12 119.323 20.95 118.713 20.61C118.103 20.26 117.618 19.775 117.258 19.155C116.908 18.535 116.733 17.805 116.733 16.965C116.733 16.115 116.908 15.38 117.258 14.76C117.618 14.14 118.103 13.66 118.713 13.32C119.323 12.98 120.008 12.81 120.768 12.81C121.448 12.81 122.043 12.96 122.553 13.26C123.063 13.56 123.458 14.015 123.738 14.625C124.018 15.235 124.158 16.015 124.158 16.965C124.158 17.905 124.023 18.685 123.753 19.305C123.483 19.915 123.093 20.37 122.583 20.67C122.083 20.97 121.478 21.12 120.768 21.12ZM121.173 19.2C121.553 19.2 121.898 19.11 122.208 18.93C122.518 18.75 122.763 18.495 122.943 18.165C123.133 17.825 123.228 17.425 123.228 16.965C123.228 16.495 123.133 16.095 122.943 15.765C122.763 15.435 122.518 15.18 122.208 15C121.898 14.82 121.553 14.73 121.173 14.73C120.783 14.73 120.433 14.82 120.123 15C119.813 15.18 119.563 15.435 119.373 15.765C119.193 16.095 119.103 16.495 119.103 16.965C119.103 17.425 119.193 17.825 119.373 18.165C119.563 18.495 119.813 18.75 120.123 18.93C120.433 19.11 120.783 19.2 121.173 19.2ZM123.288 21V19.35L123.333 16.95L123.183 14.565V9.87H125.523V21H123.288ZM127.869 21V12.93H130.209V21H127.869ZM129.039 11.805C128.609 11.805 128.259 11.68 127.989 11.43C127.719 11.18 127.584 10.87 127.584 10.5C127.584 10.13 127.719 9.82 127.989 9.57C128.259 9.32 128.609 9.195 129.039 9.195C129.469 9.195 129.819 9.315 130.089 9.555C130.359 9.785 130.494 10.085 130.494 10.455C130.494 10.845 130.359 11.17 130.089 11.43C129.829 11.68 129.479 11.805 129.039 11.805ZM136.401 21.12C135.541 21.12 134.776 20.94 134.106 20.58C133.446 20.22 132.921 19.73 132.531 19.11C132.151 18.48 131.961 17.765 131.961 16.965C131.961 16.155 132.151 15.44 132.531 14.82C132.921 14.19 133.446 13.7 134.106 13.35C134.776 12.99 135.541 12.81 136.401 12.81C137.251 12.81 138.011 12.99 138.681 13.35C139.351 13.7 139.876 14.185 140.256 14.805C140.636 15.425 140.826 16.145 140.826 16.965C140.826 17.765 140.636 18.48 140.256 19.11C139.876 19.73 139.351 20.22 138.681 20.58C138.011 20.94 137.251 21.12 136.401 21.12ZM136.401 19.2C136.791 19.2 137.141 19.11 137.451 18.93C137.761 18.75 138.006 18.495 138.186 18.165C138.366 17.825 138.456 17.425 138.456 16.965C138.456 16.495 138.366 16.095 138.186 15.765C138.006 15.435 137.761 15.18 137.451 15C137.141 14.82 136.791 14.73 136.401 14.73C136.011 14.73 135.661 14.82 135.351 15C135.041 15.18 134.791 15.435 134.601 15.765C134.421 16.095 134.331 16.495 134.331 16.965C134.331 17.425 134.421 17.825 134.601 18.165C134.791 18.495 135.041 18.75 135.351 18.93C135.661 19.11 136.011 19.2 136.401 19.2ZM152.188 21.18C151.378 21.18 150.623 21.05 149.923 20.79C149.233 20.52 148.633 20.14 148.123 19.65C147.613 19.16 147.213 18.585 146.923 17.925C146.643 17.265 146.503 16.54 146.503 15.75C146.503 14.96 146.643 14.235 146.923 13.575C147.213 12.915 147.613 12.34 148.123 11.85C148.643 11.36 149.248 10.985 149.938 10.725C150.628 10.455 151.383 10.32 152.203 10.32C153.113 10.32 153.933 10.48 154.663 10.8C155.403 11.11 156.023 11.57 156.523 12.18L154.963 13.62C154.603 13.21 154.203 12.905 153.763 12.705C153.323 12.495 152.843 12.39 152.323 12.39C151.833 12.39 151.383 12.47 150.973 12.63C150.563 12.79 150.208 13.02 149.908 13.32C149.608 13.62 149.373 13.975 149.203 14.385C149.043 14.795 148.963 15.25 148.963 15.75C148.963 16.25 149.043 16.705 149.203 17.115C149.373 17.525 149.608 17.88 149.908 18.18C150.208 18.48 150.563 18.71 150.973 18.87C151.383 19.03 151.833 19.11 152.323 19.11C152.843 19.11 153.323 19.01 153.763 18.81C154.203 18.6 154.603 18.285 154.963 17.865L156.523 19.305C156.023 19.915 155.403 20.38 154.663 20.7C153.933 21.02 153.108 21.18 152.188 21.18ZM161.74 21.12C160.88 21.12 160.115 20.94 159.445 20.58C158.785 20.22 158.26 19.73 157.87 19.11C157.49 18.48 157.3 17.765 157.3 16.965C157.3 16.155 157.49 15.44 157.87 14.82C158.26 14.19 158.785 13.7 159.445 13.35C160.115 12.99 160.88 12.81 161.74 12.81C162.59 12.81 163.35 12.99 164.02 13.35C164.69 13.7 165.215 14.185 165.595 14.805C165.975 15.425 166.165 16.145 166.165 16.965C166.165 17.765 165.975 18.48 165.595 19.11C165.215 19.73 164.69 20.22 164.02 20.58C163.35 20.94 162.59 21.12 161.74 21.12ZM161.74 19.2C162.13 19.2 162.48 19.11 162.79 18.93C163.1 18.75 163.345 18.495 163.525 18.165C163.705 17.825 163.795 17.425 163.795 16.965C163.795 16.495 163.705 16.095 163.525 15.765C163.345 15.435 163.1 15.18 162.79 15C162.48 14.82 162.13 14.73 161.74 14.73C161.35 14.73 161 14.82 160.69 15C160.38 15.18 160.13 15.435 159.94 15.765C159.76 16.095 159.67 16.495 159.67 16.965C159.67 17.425 159.76 17.825 159.94 18.165C160.13 18.495 160.38 18.75 160.69 18.93C161 19.11 161.35 19.2 161.74 19.2ZM171.374 21.12C170.614 21.12 169.929 20.95 169.319 20.61C168.709 20.26 168.224 19.775 167.864 19.155C167.514 18.535 167.339 17.805 167.339 16.965C167.339 16.115 167.514 15.38 167.864 14.76C168.224 14.14 168.709 13.66 169.319 13.32C169.929 12.98 170.614 12.81 171.374 12.81C172.054 12.81 172.649 12.96 173.159 13.26C173.669 13.56 174.064 14.015 174.344 14.625C174.624 15.235 174.764 16.015 174.764 16.965C174.764 17.905 174.629 18.685 174.359 19.305C174.089 19.915 173.699 20.37 173.189 20.67C172.689 20.97 172.084 21.12 171.374 21.12ZM171.779 19.2C172.159 19.2 172.504 19.11 172.814 18.93C173.124 18.75 173.369 18.495 173.549 18.165C173.739 17.825 173.834 17.425 173.834 16.965C173.834 16.495 173.739 16.095 173.549 15.765C173.369 15.435 173.124 15.18 172.814 15C172.504 14.82 172.159 14.73 171.779 14.73C171.389 14.73 171.039 14.82 170.729 15C170.419 15.18 170.169 15.435 169.979 15.765C169.799 16.095 169.709 16.495 169.709 16.965C169.709 17.425 169.799 17.825 169.979 18.165C170.169 18.495 170.419 18.75 170.729 18.93C171.039 19.11 171.389 19.2 171.779 19.2ZM173.894 21V19.35L173.939 16.95L173.789 14.565V9.87H176.129V21H173.894ZM182.48 21.12C181.56 21.12 180.75 20.94 180.05 20.58C179.36 20.22 178.825 19.73 178.445 19.11C178.065 18.48 177.875 17.765 177.875 16.965C177.875 16.155 178.06 15.44 178.43 14.82C178.81 14.19 179.325 13.7 179.975 13.35C180.625 12.99 181.36 12.81 182.18 12.81C182.97 12.81 183.68 12.98 184.31 13.32C184.95 13.65 185.455 14.13 185.825 14.76C186.195 15.38 186.38 16.125 186.38 16.995C186.38 17.085 186.375 17.19 186.365 17.31C186.355 17.42 186.345 17.525 186.335 17.625H179.78V16.26H185.105L184.205 16.665C184.205 16.245 184.12 15.88 183.95 15.57C183.78 15.26 183.545 15.02 183.245 14.85C182.945 14.67 182.595 14.58 182.195 14.58C181.795 14.58 181.44 14.67 181.13 14.85C180.83 15.02 180.595 15.265 180.425 15.585C180.255 15.895 180.17 16.265 180.17 16.695V17.055C180.17 17.495 180.265 17.885 180.455 18.225C180.655 18.555 180.93 18.81 181.28 18.99C181.64 19.16 182.06 19.245 182.54 19.245C182.97 19.245 183.345 19.18 183.665 19.05C183.995 18.92 184.295 18.725 184.565 18.465L185.81 19.815C185.44 20.235 184.975 20.56 184.415 20.79C183.855 21.01 183.21 21.12 182.48 21.12Z" fill="white"/>
<path d="M187 0H5C2.23858 0 0 2.23858 0 5V27C0 29.7614 2.23858 32 5 32H187C189.761 32 192 29.7614 192 27V5C192 2.23858 189.761 0 187 0Z" fill="url(#paint0_linear_11_408)"/>
<defs>
<linearGradient id="paint0_linear_11_408" x1="0" y1="0" x2="0" y2="32" gradientUnits="userSpaceOnUse">
<stop stop-color="#BBBBBB" stop-opacity="0.1"/>
<stop offset="1" stop-opacity="0.1"/>
</linearGradient>
</defs>
</svg>
